<?xml version="1.0" encoding="UTF-8"?>
<svg width="16px" height="16px" viewBox="0 0 16 16" version="1.1" xmlns="http://www.w3.org/2000/svg" xmlns:xlink="http://www.w3.org/1999/xlink">
    <!-- Generator: Sketch 60.1 (88133) - https://sketch.com -->
    <title>ic_header_todayistheday_normal</title>
    <desc>Created with Sketch.</desc>
    <defs>
        <rect id="path-1" x="0" y="0" width="24" height="20"></rect>
        <path d="M2.27868659,0.348640812 C3.19108659,0.419130152 4.06481993,0.719312893 4.98521993,0.721859086 C5.47348659,0.723199188 6.42695326,0.57592203 6.40028659,1.32651289 C6.35348659,2.64771898 3.85415326,2.90609056 2.97428659,2.84364183 C2.26095326,2.79271797 1.50908659,2.50888447 0.935753258,2.08032 C0.542419925,1.78576569 -0.472113408,0.673615431 0.256686592,0.284583959 C0.742419925,0.0259443655 1.72188659,0.305757563 2.27868659,0.348640812" id="path-3"></path>
    </defs>
    <g id="預熱" stroke="none" stroke-width="1" fill="none" fill-rule="evenodd">
        <g id="&gt;1200-_-預熱會場" transform="translate(-1022.000000, -25.000000)">
            <g id="Components/nav/desktop">
                <g>
                    <g id="Group">
                        <g id="個人設定" transform="translate(872.000000, 15.000000)">
                            <g id="暖身活動-2" transform="translate(96.000000, 2.000000)">
                                <g id="ic_header_todayistheday_normal" transform="translate(52.000000, 4.000000)">
                                    <mask id="mask-2" fill="white">
                                        <use xlink:href="#path-1"></use>
                                    </mask>
                                    <use id="Rectangle" fill="#FFEE58" opacity="0" xlink:href="#path-1"></use>
                                    <g id="img_mascot_H" mask="url(#mask-2)">
                                        <g transform="translate(2.000000, 4.000000)">
                                            <g transform="translate(0.533333, 0.146193)">
                                                <g id="Group-57">
                                                    <g id="Group-3" transform="translate(2.933333, 0.113239)" fill="#0BAF8A">
                                                        <path d="M0.30324,10.7222193 C-0.07116,8.0611797 0.180973333,5.02089137 0.651106667,2.39174619 C0.746973333,1.85691168 0.872573333,0.423807107 1.47057333,0.148684264 C2.83790667,-0.478885279 2.80484,1.37179492 2.91817333,2.07749239 C3.12044,3.3382599 3.65430667,5.42814822 5.04804,6.12044467 C6.81510667,6.99834518 8.32084,5.0635066 8.99537333,3.90271066 C9.59044,2.87820305 9.49350667,0.547230457 10.9421733,0.0854314721 C12.55244,-0.427425381 12.1725733,4.53805279 12.1419067,5.17165279 C11.9971067,8.16959391 12.1721733,11.1616386 11.8767067,14.1448386 C11.58524,17.0834132 11.57684,20.0017523 11.0959067,22.9219675 C11.06004,23.1417442 10.64444,25.2674132 10.19204,25.0851594 C9.57217333,24.8350964 9.85670667,24.1378416 10.0159067,23.760067 C10.4967067,22.6181665 10.1431067,21.2769929 9.70870667,20.1439371 C9.32657333,19.1466335 9.13084,18.1055086 8.97217333,17.0563431 C8.76510667,15.6872954 7.58625062,16.7151533 5.94051729,17.0563431 C4.49585062,17.3558558 3.92030667,16.5733706 3.87257333,17.6926234 C3.82204,18.8774071 3.87790667,20.0652731 3.94617333,21.2511289 C3.99724,22.1276893 3.92524,23.3977036 4.29284,24.2272264 C4.39844,24.4641563 5.28177333,25.3194091 4.34710667,25.1782964 C3.97830667,25.1225482 3.62070667,24.275068 3.47444,23.998069 C3.00324,23.1064995 2.80697333,22.1268853 2.59430667,21.1740731 C2.14084,19.1432832 1.54977333,17.1320589 1.03364,15.1177523 C0.675106667,13.7184183 0.504973333,12.1565299 0.30324,10.7222193 Z" id="Fill-1"></path>
                                                    </g>
                                                    <g id="Group-56" transform="translate(0.000000, 1.185320)">
                                                        <g id="Group-8" transform="translate(4.043012, 0.854318)">
                                                            <path d="M1.25508183,1.14516717 C1.89254849,0.296078846 0.668948492,-0.0779434892 0.054948492,0.0134514347 C-0.173051508,0.80129712 0.327748492,1.86399763 1.20014849,1.19006057" id="Fill-32" fill="#221E1F"></path>
                                                            <path d="M0.988215159,0.707409607 C0.974615159,0.845842095 0.837415159,0.945813668 0.681015159,0.930402501 C0.524615159,0.914857323 0.409148492,0.790093871 0.422615159,0.651527374 C0.436215159,0.512826866 0.573681825,0.412989303 0.729948492,0.42840047 C0.886348492,0.443945648 1.00181516,0.5687091 0.988215159,0.707409607" id="Fill-36" fill="#FFFFFF"></path>
                                                        </g>
                                                        <g id="Group-9" transform="translate(12.969171, 0.645459)">
                                                            <path d="M1.03516249,1.16701454 C1.40916249,0.950722149 1.65796249,0.468687632 1.65222915,0.0121150429 C1.19796249,0.0180114896 0.55369582,-0.0962991703 0.215029153,0.275444992 C-0.397770847,0.873800322 0.42729582,1.71511606 1.09009582,1.12185311" id="Fill-34" fill="#221E1F"></path>
                                                            <path d="M0.91009582,0.659960322 C0.89649582,0.79866083 0.758762487,0.898364383 0.602362487,0.882953215 C0.446362487,0.867408038 0.330229153,0.742778596 0.343829153,0.604078089 C0.35729582,0.465645601 0.495429153,0.365808038 0.651429153,0.381085195 C0.80769582,0.396630373 0.923562487,0.521527835 0.91009582,0.659960322" id="Fill-38" fill="#FFFFFF"></path>
                                                        </g>
                                                        <g id="Group-5" transform="translate(5.673433, 6.173030)">
                                                            <mask id="mask-4" fill="white">
                                                                <use xlink:href="#path-3"></use>
                                                            </mask>
                                                            <use id="Fill-40" fill="#343535" xlink:href="#path-3"></use>
                                                            <path d="M0.786953258,0.145535025 C1.00721993,0.471447716 1.17748659,0.79186599 1.34775326,1.1128203 C1.46228659,0.972243655 1.72668659,0.846140102 1.84615326,0.655443655 C1.92148659,0.916093401 2.04681993,1.18170152 2.28655326,1.30686701 C2.40588659,1.11603655 2.67508659,0.939679188 2.79468659,0.748982741 C2.83481993,0.854448731 3.01001993,1.12501523 3.05015326,1.2302132 C3.15975326,1.13975635 3.37415326,1.00869442 3.48375326,0.918505584 C3.64428659,1.33943147 4.04375326,1.37883046 4.33255326,1.00226193 C4.37255326,1.10719188 4.50775326,1.27282843 4.49801993,1.37306802 C4.60748659,1.28261117 4.81215326,1.25205685 4.92175326,1.16146599 C4.91681993,1.21185381 5.00201993,1.37226396 5.04721993,1.42720812 C5.26148659,1.29641421 5.49152854,0.891435533 5.66552854,0.655443655 C5.303403,0.662454918 5.07476653,-0.110860443 4.72308014,-0.173030254 C4.24124149,-0.258207897 3.63519536,0.527931016 3.17335326,0.482302538 C2.79969814,0.445449632 2.40458299,-0.302362647 1.99586649,-0.367810515 C1.58566627,-0.433495969 1.16198098,0.182919645 0.851753258,6.88338275e-15" id="Fill-42" fill="#FFFFFF" mask="url(#mask-4)"></path>
                                                        </g>
                                                        <path d="M3.64132,7.50416569 C2.90585333,6.40916873 2.00438667,5.41802964 1.23398667,4.35345299 C0.83212,3.79824893 -0.210813333,3.17496772 0.0378533333,2.40266721 C0.432386667,2.30738599 0.794386667,2.4566733 1.10132,2.6929332 C1.10652,2.2296601 1.06652,1.20716264 1.61038667,2.02422254 C1.91345333,2.48012508 1.69798667,3.24465299 1.89252,3.75415959 C2.27878667,4.76633827 3.22372,5.74233421 3.84932,6.62090477 C4.48118667,7.50805198 5.09092,8.40029157 5.62478667,9.33889868 C5.84838667,9.73275452 7.66678667,11.3990368 6.85358667,11.7636784 C6.15412,12.0773961 5.73785333,10.5232804 5.44852,10.1467119 C4.80745333,9.31223066 4.23412,8.38635452 3.64132,7.50416569" id="Fill-52" fill="#0BAF8A"></path>
                                                    </g>
                                                </g>
                                            </g>
                                        </g>
                                    </g>
                                </g>
                            </g>
                        </g>
                    </g>
                </g>
            </g>
        </g>
    </g>
</svg>