<?xml version="1.0" encoding="UTF-8"?>
<svg width="17px" height="17px" viewBox="0 0 17 17" version="1.1" xmlns="http://www.w3.org/2000/svg" xmlns:xlink="http://www.w3.org/1999/xlink">
    <!-- Generator: Sketch 60.1 (88133) - https://sketch.com -->
    <title>ic_header_todayistheday_main_normal</title>
    <desc>Created with Sketch.</desc>
    <defs>
        <rect id="path-1" x="0" y="0" width="24" height="20"></rect>
    </defs>
    <g id="預熱" stroke="none" stroke-width="1" fill="none" fill-rule="evenodd">
        <g id="&gt;1200-_-預熱會場" transform="translate(-926.000000, -24.000000)">
            <g id="Components/nav/desktop">
                <g>
                    <g id="Group">
                        <g id="個人設定" transform="translate(872.000000, 15.000000)">
                            <g id="暖身活動-2" transform="translate(0.000000, 2.000000)">
                                <g id="ic_header_todayistheday_main_normal" transform="translate(52.000000, 4.000000)">
                                    <mask id="mask-2" fill="white">
                                        <use xlink:href="#path-1"></use>
                                    </mask>
                                    <use id="Rectangle" fill="#FFEE58" opacity="0" xlink:href="#path-1"></use>
                                    <g id="img_mascot_W" mask="url(#mask-2)">
                                        <g transform="translate(-4.000000, -9.000000)" id="Group-63">
                                            <g transform="translate(15.111078, 21.275693) rotate(6.000000) translate(-15.111078, -21.275693) translate(2.611078, 1.275693)">
                                                <path d="M12.384615,14.1219279 C12.249915,12.9088886 14.156415,11.5993243 15.333465,11.8503171 C16.973715,12.1999243 17.693115,13.77636 17.494815,15.20181 C17.445765,15.5543421 17.313765,16.2724993 16.995165,16.5188957 C16.365165,17.0068136 16.336065,16.5861707 15.781215,16.1527136 C15.213765,15.7092279 12.693315,14.557335 12.627315,14.3842029" id="Fill-1" fill="#3B70AE"></path>
                                                <path d="M16.86264,17.2831982 C15.94479,15.0684161 15.06789,11.5925411 11.64639,11.6933839 C9.78819,11.8088518 9.23439,13.1287232 9.55134,14.7355232 C9.72969,15.2951732 11.21049,17.8322625 11.37774,17.5233268 L16.86264,17.2831982 Z" id="Fill-3" fill="#588BC8"></path>
                                                <g id="Group-7" transform="translate(5.700000, 13.798896)" fill="#BEB198">
                                                    <path d="M10.3476,1.76690893 C9.64845,0.661258929 8.75715,-0.125008929 7.25925,0.146598214 C6.3333,0.314158929 6.15075,0.717391071 5.781,1.48095536 C5.2773,2.52058393 5.13285,3.38206607 4.84365,4.47267321 C3.7164,8.72506607 2.8581,12.6892768 2.3361,16.8724446 C2.19555,17.9999625 2.00445,19.1334696 1.90545,20.2644696 C1.83825,21.0340232 2.3547,22.3637839 1.72395,22.9992054 C1.5,23.2245696 0.09075,23.5286304 0.80865,24.0249054 C1.14945,24.2604375 2.4465,23.8569268 2.70885,23.6471625 C3.2754,23.1935089 3.19305,22.4828732 3.20145,21.8693196 C3.2106,21.1663446 3.49065,20.6300946 3.6651,19.9424411 C4.0689,18.3499875 4.22055,17.1728839 5.9535,16.3307625 C8.2425,15.2182875 12.4095,14.1786589 13.68375,17.1595125 C14.37525,18.7771768 15.30225,22.1502589 17.8593,21.8566446 C19.71195,21.6435375 17.26905,20.9686982 17.0169,20.7686839 C16.53435,20.3853696 16.27575,19.7538482 16.0605,19.2642589 C15.2346,17.3866875 14.8827,15.1493411 14.50695,13.1682804 C14.09595,11.0030839 13.15695,8.93914821 12.53835,6.81141964 C12.0432,5.1065625 11.313,3.29361964 10.3476,1.76690893" id="Fill-5"></path>
                                                </g>
                                                <path d="M9.878115,26.9318679 C9.953715,27.5032179 9.195765,28.4595536 9.540315,29.0966464 C10.008915,28.704975 10.550115,27.2899714 10.263015,26.6946643 C10.064265,26.7658393 10.031715,26.9143179 9.948315,27.068925" id="Fill-8" fill="#988F80"></path>
                                                <path d="M12.118155,24.9846536 C12.027555,25.4781429 11.699355,26.1440679 12.012555,26.5432607 C12.365805,26.0680179 12.597855,25.4612893 12.573405,24.8842286 C12.253005,24.8241964 12.220755,24.9729536 12.143355,25.1749179" id="Fill-10" fill="#988F80"></path>
                                                <path d="M11.692995,29.2376314 C11.971845,29.0656136 12.536445,27.717885 11.912895,27.7618993 C11.568195,27.7862743 11.589195,28.987335 11.692995,29.2376314" id="Fill-12" fill="#988F80"></path>
                                                <path d="M13.997625,26.9930143 C13.708875,27.1708821 13.547925,27.5275929 13.643475,27.8549143 C14.047125,27.7606179 14.355675,27.3385821 14.305125,26.9579143 C14.081475,26.8385464 14.093925,26.9335393 13.952625,27.0463607" id="Fill-16" fill="#988F80"></path>
                                                <path d="M13.012665,17.7050111 C14.634615,17.9450004 15.088365,16.6522896 14.074965,16.0775968 C12.872865,15.3953754 11.318865,17.4551325 13.012665,17.7050111" id="Fill-26" fill="#343535"></path>
                                                <path d="M13.30791,16.4914982 C13.09791,16.6263268 12.73836,16.9253732 12.93561,17.1239946 C13.45236,17.5814089 14.54811,16.3870339 13.42026,16.4786839" id="Fill-28" fill="#F1F2EF"></path>
                                                <path d="M11.930805,18.7235379 C11.999655,19.4760986 12.779955,19.8251486 13.518105,19.7915807 C13.915455,19.7736129 14.231355,19.6465843 14.567805,19.4646771 C15.035805,19.211595 15.246255,18.8239629 15.641055,18.4976164 C16.029405,19.0553164 16.357155,19.7470093 16.121955,20.4185057 C15.679155,21.6839164 14.051205,22.8363664 12.664305,22.0052486 C11.620905,21.3798557 10.971405,19.8273771 11.806605,18.8344093" id="Fill-30" fill="#343535"></path>
                                                <path d="M12.822165,19.6980504 C12.858315,19.8540504 12.704715,20.1780289 12.697965,20.3262289 C12.691215,20.4742896 12.751815,20.3974039 12.933015,20.5344611 C13.113915,20.6716575 13.450065,20.6126004 13.510065,20.4685789 C13.570515,20.3248361 13.542465,19.9787111 13.542465,19.9787111 C13.542465,19.9787111 13.645665,19.8252182 13.517565,19.7906754 C13.389315,19.7561325 13.041165,19.5355039 12.930465,19.6856539" id="Fill-32" fill="#F1F2EF"></path>
                                                <path d="M13.787355,19.6718646 C13.787355,19.6718646 13.802505,20.4081289 13.958655,20.4362646 C14.114955,20.4648182 14.590755,20.4865468 14.660205,20.3526932 C14.730105,20.2193968 14.549955,19.8401218 14.498655,19.6586325 C14.447055,19.4771432 13.904955,19.5073682 13.787355,19.6718646" id="Fill-34" fill="#F1F2EF"></path>
                                                <path d="M9.90405,23.6840871 C8.9217,22.3320407 8.10555,20.9386264 7.4841,19.3878193 C7.24425,18.7895871 6.294,15.31023 5.23065,15.8024657 C5.36145,15.982005 5.4873,16.3334229 5.6076,16.5131014 C5.2665,16.1650264 4.83675,15.8634729 4.3254,16.0233729 C4.3353,16.05123 4.36305,16.2497121 4.3617,16.2785443 C4.7091,16.3685229 5.03565,16.5643586 5.2416,16.83708 C4.7673,16.6500193 4.293,16.4189443 3.77309375,16.56993 C3.7698,17.2995086 5.0745,17.6750229 5.61075,18.1848086 C6.31965,18.8583943 6.59775,19.7014907 6.9663,20.5397121 C7.31775,21.3390729 9.2109,24.9117514 10.3305,24.6817907 C10.51335,24.1848193 9.9843,23.4751586 9.57105,23.5287836" id="Fill-38" fill="#BEB198"></path>
                                            </g>
                                        </g>
                                    </g>
                                </g>
                            </g>
                        </g>
                    </g>
                </g>
            </g>
        </g>
    </g>
</svg>