<svg xmlns="http://www.w3.org/2000/svg" xmlns:xlink="http://www.w3.org/1999/xlink" width="181" height="197" viewBox="0 0 181 197">
    <defs>
        <path id="a" d="M.92.156h90.598V188H.919z"/>
        <path id="c" d="M11.029 1.11C6.544 3.163 5.602 13.857 4.884 17.847 1.358 37.467-.534 60.153 2.275 80.011c1.513 10.703 2.788 22.357 5.477 32.799 3.871 15.031 8.305 30.04 11.706 45.193 1.594 7.11 3.066 14.421 6.6 21.073 1.097 2.067 3.779 8.391 6.545 8.808.496.074.923.112 1.289.116h.142c4.555-.056-1.109-5.587-1.838-7.214-2.757-6.19-2.217-15.667-2.6-22.207-.512-8.85-.931-17.714-.552-26.554.359-8.352 2.572-19.705 13.407-21.941 12.341-2.546 23.287 6.977 24.841 17.193 1.19 7.829 2.657 15.598 5.523 23.039 3.259 8.456 5.91 18.464 2.304 26.985-1.194 2.819-3.328 8.021 1.321 9.887 3.393 1.361 6.51-14.502 6.78-16.141 3.606-21.791 3.669-43.568 5.855-65.496 2.216-22.261.903-44.589 1.988-66.959.232-4.729 3.08-41.782-8.997-37.954-10.865 3.445-10.138 20.84-14.601 28.484-5.058 8.662-16.352 23.1-29.604 16.549-10.454-5.165-14.458-20.761-15.974-30.168-.731-4.523-.65-15.347-7.109-15.347-1.062 0-2.301.292-3.749.954"/>
        <path id="e" d="M11.029 1.11C6.544 3.163 5.602 13.857 4.884 17.847 1.358 37.467-.534 60.153 2.275 80.011c1.513 10.703 2.788 22.357 5.477 32.799 3.871 15.031 8.305 30.04 11.706 45.193 1.594 7.11 3.066 14.421 6.6 21.073 1.097 2.067 3.779 8.391 6.545 8.808.496.074.923.112 1.289.116h.142c4.555-.056-1.109-5.587-1.838-7.214-2.757-6.19-2.217-15.667-2.6-22.207-.512-8.85-.931-17.714-.552-26.554.359-8.352 2.572-19.705 13.407-21.941 12.341-2.546 23.287 6.977 24.841 17.193 1.19 7.829 2.657 15.598 5.523 23.039 3.259 8.456 5.91 18.464 2.304 26.985-1.194 2.819-3.328 8.021 1.321 9.887 3.393 1.361 6.51-14.502 6.78-16.141 3.606-21.791 3.669-43.568 5.855-65.496 2.216-22.261.903-44.589 1.988-66.959.232-4.729 3.08-41.782-8.997-37.954-10.865 3.445-10.138 20.84-14.601 28.484-5.058 8.662-16.352 23.1-29.604 16.549-10.454-5.165-14.458-20.761-15.974-30.168-.731-4.523-.65-15.347-7.109-15.347-1.062 0-2.301.292-3.749.954"/>
        <path id="g" d="M11.029 1.11C6.544 3.163 5.602 13.857 4.884 17.847 1.358 37.467-.534 60.153 2.275 80.011c1.513 10.703 2.788 22.357 5.477 32.799 3.871 15.031 8.305 30.04 11.706 45.193 1.594 7.11 3.066 14.421 6.6 21.073 1.097 2.067 3.779 8.391 6.545 8.808.496.074.923.112 1.289.116h.142c4.555-.056-1.109-5.587-1.838-7.214-2.757-6.19-2.217-15.667-2.6-22.207-.512-8.85-.931-17.714-.552-26.554.359-8.352 2.572-19.705 13.407-21.941 12.341-2.546 23.287 6.977 24.841 17.193 1.19 7.829 2.657 15.598 5.523 23.039 3.259 8.456 5.91 18.464 2.304 26.985-1.194 2.819-3.328 8.021 1.321 9.887 3.393 1.361 6.51-14.502 6.78-16.141 3.606-21.791 3.669-43.568 5.855-65.496 2.216-22.261.903-44.589 1.988-66.959.232-4.729 3.08-41.782-8.997-37.954-10.865 3.445-10.138 20.84-14.601 28.484-5.058 8.662-16.352 23.1-29.604 16.549-10.454-5.165-14.458-20.761-15.974-30.168-.731-4.523-.65-15.347-7.109-15.347-1.062 0-2.301.292-3.749.954"/>
        <path id="i" d="M11.029 1.11C6.544 3.163 5.602 13.857 4.884 17.847 1.358 37.467-.534 60.153 2.275 80.011c1.513 10.703 2.788 22.357 5.477 32.799 3.871 15.031 8.305 30.04 11.706 45.193 1.594 7.11 3.066 14.421 6.6 21.073 1.097 2.067 3.779 8.391 6.545 8.808.496.074.923.112 1.289.116h.142c4.555-.056-1.109-5.587-1.838-7.214-2.757-6.19-2.217-15.667-2.6-22.207-.512-8.85-.931-17.714-.552-26.554.359-8.352 2.572-19.705 13.407-21.941 12.341-2.546 23.287 6.977 24.841 17.193 1.19 7.829 2.657 15.598 5.523 23.039 3.259 8.456 5.91 18.464 2.304 26.985-1.194 2.819-3.328 8.021 1.321 9.887 3.393 1.361 6.51-14.502 6.78-16.141 3.606-21.791 3.669-43.568 5.855-65.496 2.216-22.261.903-44.589 1.988-66.959.232-4.729 3.08-41.782-8.997-37.954-10.865 3.445-10.138 20.84-14.601 28.484-5.058 8.662-16.352 23.1-29.604 16.549-10.454-5.165-14.458-20.761-15.974-30.168-.731-4.523-.65-15.347-7.109-15.347-1.062 0-2.301.292-3.749.954"/>
        <path id="k" d="M11.029 1.11C6.544 3.163 5.602 13.857 4.884 17.847 1.358 37.467-.534 60.153 2.275 80.011c1.513 10.703 2.788 22.357 5.477 32.799 3.871 15.031 8.305 30.04 11.706 45.193 1.594 7.11 3.066 14.421 6.6 21.073 1.097 2.067 3.779 8.391 6.545 8.808.496.074.923.112 1.289.116h.142c4.555-.056-1.109-5.587-1.838-7.214-2.757-6.19-2.217-15.667-2.6-22.207-.512-8.85-.931-17.714-.552-26.554.359-8.352 2.572-19.705 13.407-21.941 12.341-2.546 23.287 6.977 24.841 17.193 1.19 7.829 2.657 15.598 5.523 23.039 3.259 8.456 5.91 18.464 2.304 26.985-1.194 2.819-3.328 8.021 1.321 9.887 3.393 1.361 6.51-14.502 6.78-16.141 3.606-21.791 3.669-43.568 5.855-65.496 2.216-22.261.903-44.589 1.988-66.959.232-4.729 3.08-41.782-8.997-37.954-10.865 3.445-10.138 20.84-14.601 28.484-5.058 8.662-16.352 23.1-29.604 16.549-10.454-5.165-14.458-20.761-15.974-30.168-.731-4.523-.65-15.347-7.109-15.347-1.062 0-2.301.292-3.749.954"/>
        <path id="m" d="M11.029 1.11C6.544 3.163 5.602 13.857 4.884 17.847 1.358 37.467-.534 60.153 2.275 80.011c1.513 10.703 2.788 22.357 5.477 32.799 3.871 15.031 8.305 30.04 11.706 45.193 1.594 7.11 3.066 14.421 6.6 21.073 1.097 2.067 3.779 8.391 6.545 8.808.496.074.923.112 1.289.116h.142c4.555-.056-1.109-5.587-1.838-7.214-2.757-6.19-2.217-15.667-2.6-22.207-.512-8.85-.931-17.714-.552-26.554.359-8.352 2.572-19.705 13.407-21.941 12.341-2.546 23.287 6.977 24.841 17.193 1.19 7.829 2.657 15.598 5.523 23.039 3.259 8.456 5.91 18.464 2.304 26.985-1.194 2.819-3.328 8.021 1.321 9.887 3.393 1.361 6.51-14.502 6.78-16.141 3.606-21.791 3.669-43.568 5.855-65.496 2.216-22.261.903-44.589 1.988-66.959.232-4.729 3.08-41.782-8.997-37.954-10.865 3.445-10.138 20.84-14.601 28.484-5.058 8.662-16.352 23.1-29.604 16.549-10.454-5.165-14.458-20.761-15.974-30.168-.731-4.523-.65-15.347-7.109-15.347-1.062 0-2.301.292-3.749.954"/>
        <path id="o" d="M11.029 1.11C6.544 3.163 5.602 13.857 4.884 17.847 1.358 37.467-.534 60.153 2.275 80.011c1.513 10.703 2.788 22.357 5.477 32.799 3.871 15.031 8.305 30.04 11.706 45.193 1.594 7.11 3.066 14.421 6.6 21.073 1.097 2.067 3.779 8.391 6.545 8.808.496.074.923.112 1.289.116h.142c4.555-.056-1.109-5.587-1.838-7.214-2.757-6.19-2.217-15.667-2.6-22.207-.512-8.85-.931-17.714-.552-26.554.359-8.352 2.572-19.705 13.407-21.941 12.341-2.546 23.287 6.977 24.841 17.193 1.19 7.829 2.657 15.598 5.523 23.039 3.259 8.456 5.91 18.464 2.304 26.985-1.194 2.819-3.328 8.021 1.321 9.887 3.393 1.361 6.51-14.502 6.78-16.141 3.606-21.791 3.669-43.568 5.855-65.496 2.216-22.261.903-44.589 1.988-66.959.232-4.729 3.08-41.782-8.997-37.954-10.865 3.445-10.138 20.84-14.601 28.484-5.058 8.662-16.352 23.1-29.604 16.549-10.454-5.165-14.458-20.761-15.974-30.168-.731-4.523-.65-15.347-7.109-15.347-1.062 0-2.301.292-3.749.954"/>
        <path id="q" d="M11.029 1.11C6.544 3.163 5.602 13.857 4.884 17.847 1.358 37.467-.534 60.153 2.275 80.011c1.513 10.703 2.788 22.357 5.477 32.799 3.871 15.031 8.305 30.04 11.706 45.193 1.594 7.11 3.066 14.421 6.6 21.073 1.097 2.067 3.779 8.391 6.545 8.808.496.074.923.112 1.289.116h.142c4.555-.056-1.109-5.587-1.838-7.214-2.757-6.19-2.217-15.667-2.6-22.207-.512-8.85-.931-17.714-.552-26.554.359-8.352 2.572-19.705 13.407-21.941 12.341-2.546 23.287 6.977 24.841 17.193 1.19 7.829 2.657 15.598 5.523 23.039 3.259 8.456 5.91 18.464 2.304 26.985-1.194 2.819-3.328 8.021 1.321 9.887 3.393 1.361 6.51-14.502 6.78-16.141 3.606-21.791 3.669-43.568 5.855-65.496 2.216-22.261.903-44.589 1.988-66.959.232-4.729 3.08-41.782-8.997-37.954-10.865 3.445-10.138 20.84-14.601 28.484-5.058 8.662-16.352 23.1-29.604 16.549-10.454-5.165-14.458-20.761-15.974-30.168-.731-4.523-.65-15.347-7.109-15.347-1.062 0-2.301.292-3.749.954"/>
        <path id="s" d="M11.029 1.11C6.544 3.163 5.602 13.857 4.884 17.847 1.358 37.467-.534 60.153 2.275 80.011c1.513 10.703 2.788 22.357 5.477 32.799 3.871 15.031 8.305 30.04 11.706 45.193 1.594 7.11 3.066 14.421 6.6 21.073 1.097 2.067 3.779 8.391 6.545 8.808.496.074.923.112 1.289.116h.142c4.555-.056-1.109-5.587-1.838-7.214-2.757-6.19-2.217-15.667-2.6-22.207-.512-8.85-.931-17.714-.552-26.554.359-8.352 2.572-19.705 13.407-21.941 12.341-2.546 23.287 6.977 24.841 17.193 1.19 7.829 2.657 15.598 5.523 23.039 3.259 8.456 5.91 18.464 2.304 26.985-1.194 2.819-3.328 8.021 1.321 9.887 3.393 1.361 6.51-14.502 6.78-16.141 3.606-21.791 3.669-43.568 5.855-65.496 2.216-22.261.903-44.589 1.988-66.959.232-4.729 3.08-41.782-8.997-37.954-10.865 3.445-10.138 20.84-14.601 28.484-5.058 8.662-16.352 23.1-29.604 16.549-10.454-5.165-14.458-20.761-15.974-30.168-.731-4.523-.65-15.347-7.109-15.347-1.062 0-2.301.292-3.749.954"/>
    </defs>
    <g fill="none" fill-rule="evenodd">
        <g transform="translate(63 19.845)">
            <mask id="b" fill="#fff">
                <use xlink:href="#a"/>
            </mask>
            <path fill="#0BAF8A" d="M7.752 112.81c-2.689-10.442-3.965-22.097-5.478-32.8-2.808-19.857-.917-42.544 2.61-62.163.718-3.99 1.66-14.685 6.145-16.738 10.255-4.683 10.007 9.127 10.857 14.393 1.517 9.408 5.521 25.003 15.974 30.17 13.253 6.55 24.546-7.887 29.605-16.55C71.928 21.477 71.201 4.084 82.066.637c12.077-3.826 9.228 33.227 8.998 37.955-1.086 22.37.227 44.698-1.989 66.959-2.186 21.927-2.249 43.705-5.856 65.496-.269 1.64-3.386 17.501-6.779 16.142-4.649-1.867-2.515-7.07-1.32-9.888 3.605-8.521.953-18.53-2.305-26.984-2.866-7.442-4.334-15.212-5.524-23.04-1.553-10.216-12.498-19.739-24.84-17.192-10.836 2.235-13.049 13.588-13.407 21.94-.379 8.84.04 17.704.552 26.553.383 6.541-.157 16.018 2.6 22.208.792 1.768 7.417 8.15.407 7.097-2.766-.416-5.448-6.74-6.545-8.806-3.534-6.654-5.006-13.964-6.6-21.073-3.402-15.154-7.835-30.162-11.706-45.193" mask="url(#b)"/>
        </g>
        <g transform="translate(63 19.845)">
            <mask id="d" fill="#fff">
                <use xlink:href="#c"/>
            </mask>
            <path fill="#90C981" d="M67.4 127.804c-3.89-4.64 5.22-6.853 8.011-3.6 4.094 4.773-4.939 7.27-8.01 3.6" mask="url(#d)"/>
        </g>
        <g transform="translate(63 19.845)">
            <mask id="f" fill="#fff">
                <use xlink:href="#e"/>
            </mask>
            <path fill="#90C981" d="M38.72 107.96c-.492-2.695-7.166-7.888-11.012-3.352-7.694 9.075 14.358 11.62 11.011 3.351" mask="url(#f)"/>
        </g>
        <g transform="translate(63 19.845)">
            <mask id="h" fill="#fff">
                <use xlink:href="#g"/>
            </mask>
            <path fill="#90C981" d="M77.053 102.688c-1.987-2.84-10.226-3.65-9.655 2.076 1.512 7.71 15.838.42 8.98-2.898" mask="url(#h)"/>
        </g>
        <g transform="translate(63 19.845)">
            <mask id="j" fill="#fff">
                <use xlink:href="#i"/>
            </mask>
            <path fill="#90C981" d="M87.008 135.26s-3.635-1.494-3.52 1.166c.384 3.817 8.092 2.305 4.34-1.843" mask="url(#j)"/>
        </g>
        <g transform="translate(63 19.845)">
            <mask id="l" fill="#fff">
                <use xlink:href="#k"/>
            </mask>
            <path fill="#90C981" d="M78.825 156.226c-6.446-3.006-.76-9.441 3.77-6.071 4.124 3.067.886 8.244-3.77 6.071" mask="url(#l)"/>
        </g>
        <g transform="translate(63 19.845)">
            <mask id="n" fill="#fff">
                <use xlink:href="#m"/>
            </mask>
            <path fill="#90C981" d="M22.017 140.009c2.02-1.314 6.438-.125 6.145 2.87-.442 4.493-11.19 2.305-5.469-2.05" mask="url(#n)"/>
        </g>
        <g transform="translate(63 19.845)">
            <mask id="p" fill="#fff">
                <use xlink:href="#o"/>
            </mask>
            <path fill="#90C981" d="M21.131 168.275c-1.387-1.272-4.61-3.1-5.58-.927-1.417 2.885 5.89 5.492 4.532.067" mask="url(#p)"/>
        </g>
        <g transform="translate(63 19.845)">
            <mask id="r" fill="#fff">
                <use xlink:href="#q"/>
            </mask>
            <path fill="#90C981" d="M75.185 165.014c3.034-.081 6.109 3.246 3.943 6.057-3.811 4.163-8.883-5.786-2.07-5.873" mask="url(#r)"/>
        </g>
        <g transform="translate(63 19.845)">
            <mask id="t" fill="#fff">
                <use xlink:href="#s"/>
            </mask>
            <path fill="#90C981" d="M32.235 159.158c-4.273-2.688-12.284-1.962-6.808 3.868 4.802 5.007 11.04-.805 6.469-4.28" mask="url(#t)"/>
        </g>
        <g>
            <path fill="#221E1F" d="M80.736 42.765c4.78-6.336-4.396-9.127-9.001-8.445-1.71 5.88 2.046 13.81 8.589 8.78M146.032 41.37c2.805-1.614 4.671-5.211 4.628-8.618-3.406.044-8.238-.81-10.778 1.965-4.596 4.465 1.592 10.743 6.563 6.316"/>
            <path fill="#FFF" d="M78.734 39.499c-.102 1.033-1.13 1.779-2.304 1.664-1.173-.116-2.039-1.047-1.938-2.081.102-1.035 1.133-1.78 2.305-1.665 1.173.116 2.04 1.047 1.937 2.082M145.094 37.586c-.102 1.035-1.135 1.78-2.308 1.664-1.17-.116-2.04-1.046-1.939-2.08.101-1.034 1.137-1.779 2.307-1.665 1.172.116 2.041 1.048 1.94 2.081"/>
            <path fill="#343535" d="M100.64 76.51c6.844.526 13.397 2.767 20.3 2.785 3.662.01 10.813-1.088 10.613 4.513-.351 9.858-19.096 11.786-25.695 11.32-5.35-.38-10.99-2.498-15.29-5.696-2.95-2.197-10.558-10.496-5.092-13.4 3.643-1.93 10.989.159 15.165.479"/>
            <path fill="#FFF" d="M89.453 74.995c1.652 2.432 2.929 4.823 4.206 7.218.859-1.05 2.842-1.99 3.738-3.413.565 1.945 1.505 3.927 3.303 4.86.895-1.423 2.914-2.74 3.81-4.162.302.787 1.616 2.806 1.917 3.59.822-.674 2.43-1.652 3.252-2.325 1.204 3.14 4.2 3.435 6.366.625.3.783 1.314 2.019 1.24 2.767.822-.675 2.357-.903 3.179-1.58-.037.377.602 1.574.94 1.984 1.608-.976 3.29-2.701 4.595-4.462-6.437.124-12.656-2-18.648-2.59-5.615-.55-12.767-.873-17.412-3.598"/>
            <path fill="#0BAF8A" d="M50.31 71.903c-5.516-8.171-12.277-15.567-18.055-23.511-3.014-4.143-10.836-8.794-8.971-14.557 2.959-.711 5.674.403 7.976 2.166.039-3.457-.261-11.087 3.818-4.99 2.273 3.402.657 9.107 2.116 12.909 2.897 7.553 9.984 14.836 14.676 21.392 4.739 6.62 9.312 13.278 13.316 20.282 1.677 2.939 15.315 15.373 9.216 18.094-5.246 2.34-8.368-9.256-10.538-12.066-4.808-6.227-9.108-13.136-13.554-19.72M159.635 85.22c3.191 6.603 17.363 15.373 12.416 23.641-3.855 6.447-17.93 10.094-24.374 13.028-4.675 2.13-8.799 4.093-14 3.642-3.193-.273-3.586.958-5.124-2.245-1.094-2.28-.618-5.15 1.448-6.484 4.405-2.839 7.695 3.163 11.371 3.08 3.912-.089 12.95-5.086 16.61-6.768 3.723-1.71 10.485-4.666 9.837-10.041-.49-4.084-8.05-8.555-10.94-10.962-2.267-1.889-11.042-8.29-4.71-10.51 3.982-1.39 8.066 6.621 10.904 7.803"/>
        </g>
        <path stroke="#FFE322" stroke-width="3" d="M168.33 56.133l6.119.503m-5.37-6.646l9.975-.52m-10.675-7.778c2.08-.12 4.161-.238 6.242-.357m-3.64-10.996l9.752-.61m-11.775-7.138l8.305-6.058m-13.77-2.048l2.663-11m-10.13 7.276l.362-6.71m-12.26 5.954l.716-9.795m-7.853 9.19L136 0"/>
    </g>
</svg>
