<?xml version="1.0" encoding="UTF-8"?>
<svg width="41px" height="55px" viewBox="0 0 41 55" version="1.1" xmlns="http://www.w3.org/2000/svg" xmlns:xlink="http://www.w3.org/1999/xlink">
    <!-- Generator: Sketch 61.2 (89653) - https://sketch.com -->
    <title>浮球_紅包</title>
    <desc>Created with Sketch.</desc>
    <defs>
        <polygon id="path-1" points="0.0685379032 0.0323467742 0.237892742 0.0323467742 0.237892742 7.45159597 0.0685379032 7.45159597"></polygon>
        <polygon id="path-3" points="0.0979112903 0.0462096774 0.339846774 0.0462096774 0.339846774 10.6451371 0.0979112903 10.6451371"></polygon>
        <filter x="-111.1%" y="-58.8%" width="322.2%" height="217.6%" filterUnits="objectBoundingBox" id="filter-5">
            <feOffset dx="0" dy="0" in="SourceAlpha" result="shadowOffsetOuter1"></feOffset>
            <feGaussianBlur stdDeviation="5" in="shadowOffsetOuter1" result="shadowBlurOuter1"></feGaussianBlur>
            <feColorMatrix values="0 0 0 0 0   0 0 0 0 0   0 0 0 0 0  0 0 0 0.12 0" type="matrix" in="shadowBlurOuter1" result="shadowMatrixOuter1"></feColorMatrix>
            <feMerge>
                <feMergeNode in="shadowMatrixOuter1"></feMergeNode>
                <feMergeNode in="SourceGraphic"></feMergeNode>
            </feMerge>
        </filter>
        <linearGradient x1="50.9415896%" y1="95.0943798%" x2="49.1722967%" y2="27.8329757%" id="linearGradient-6">
            <stop stop-color="#C33F24" offset="0%"></stop>
            <stop stop-color="#D75445" offset="100%"></stop>
        </linearGradient>
        <rect id="path-7" x="0.487518844" y="0.129032258" width="16.8797885" height="33.5219884" rx="0.774193548"></rect>
        <linearGradient x1="50.9198423%" y1="57.7006983%" x2="49.0538765%" y2="42.3548752%" id="linearGradient-9">
            <stop stop-color="#E28762" stop-opacity="0.66" offset="4%"></stop>
            <stop stop-color="#E1A74F" stop-opacity="0.4" offset="44%"></stop>
            <stop stop-color="#DFAA6B" offset="100%"></stop>
        </linearGradient>
        <linearGradient x1="-86.6400064%" y1="51.984344%" x2="-88.8393459%" y2="46.8860876%" id="linearGradient-10">
            <stop stop-color="#D2453B" offset="0%"></stop>
            <stop stop-color="#E46C47" offset="100%"></stop>
        </linearGradient>
        <linearGradient x1="75%" y1="49.9470899%" x2="25%" y2="49.9470899%" id="linearGradient-11">
            <stop stop-color="#E28762" stop-opacity="0.66" offset="4%"></stop>
            <stop stop-color="#E1A74F" offset="44%"></stop>
            <stop stop-color="#DFAA6B" offset="100%"></stop>
        </linearGradient>
        <linearGradient x1="103.065539%" y1="50%" x2="202.959831%" y2="50%" id="linearGradient-12">
            <stop stop-color="#E28762" stop-opacity="0.66" offset="4%"></stop>
            <stop stop-color="#E1A74F" offset="44%"></stop>
            <stop stop-color="#DFAA6B" offset="100%"></stop>
        </linearGradient>
        <linearGradient x1="184.63035%" y1="49.9025341%" x2="294.357977%" y2="49.9025341%" id="linearGradient-13">
            <stop stop-color="#E28762" stop-opacity="0.66" offset="4%"></stop>
            <stop stop-color="#E1A74F" offset="44%"></stop>
            <stop stop-color="#DFAA6B" offset="100%"></stop>
        </linearGradient>
        <linearGradient x1="-8123%" y1="50.0425532%" x2="-8073%" y2="50.0425532%" id="linearGradient-14">
            <stop stop-color="#E28762" stop-opacity="0.66" offset="4%"></stop>
            <stop stop-color="#E1A74F" offset="44%"></stop>
            <stop stop-color="#DFAA6B" offset="100%"></stop>
        </linearGradient>
        <linearGradient x1="-1281.03448%" y1="50.0782473%" x2="-1173.19749%" y2="50.0782473%" id="linearGradient-15">
            <stop stop-color="#E28762" stop-opacity="0.66" offset="4%"></stop>
            <stop stop-color="#E1A74F" offset="44%"></stop>
            <stop stop-color="#DFAA6B" offset="100%"></stop>
        </linearGradient>
        <linearGradient x1="51.2389978%" y1="56.667507%" x2="51.3268856%" y2="33.6620741%" id="linearGradient-16">
            <stop stop-color="#E35F58" stop-opacity="0" offset="0%"></stop>
            <stop stop-color="#DBB37C" stop-opacity="0.2" offset="17%"></stop>
            <stop stop-color="#DFAA6B" offset="51%"></stop>
            <stop stop-color="#D9B680" offset="98%"></stop>
        </linearGradient>
        <linearGradient x1="51.8428979%" y1="52.1282745%" x2="50.0830953%" y2="48.0756484%" id="linearGradient-17">
            <stop stop-color="#E28762" stop-opacity="0.66" offset="4%"></stop>
            <stop stop-color="#E1A74F" stop-opacity="0.4" offset="44%"></stop>
            <stop stop-color="#DFAA6B" offset="100%"></stop>
        </linearGradient>
        <linearGradient x1="0.0752158813%" y1="49.9752616%" x2="119.141956%" y2="49.9752616%" id="linearGradient-18">
            <stop stop-color="#E35F58" stop-opacity="0" offset="0%"></stop>
            <stop stop-color="#DBB37C" stop-opacity="0.2" offset="17%"></stop>
            <stop stop-color="#DFAA6B" offset="51%"></stop>
            <stop stop-color="#D9B680" offset="98%"></stop>
        </linearGradient>
        <linearGradient x1="106.264927%" y1="50.3113067%" x2="-15.1019658%" y2="49.6955352%" id="linearGradient-19">
            <stop stop-color="#E35F58" stop-opacity="0" offset="0%"></stop>
            <stop stop-color="#DBB37C" stop-opacity="0.2" offset="17%"></stop>
            <stop stop-color="#DFAA6B" offset="51%"></stop>
            <stop stop-color="#D9B680" offset="98%"></stop>
        </linearGradient>
        <linearGradient x1="-692.857143%" y1="50%" x2="-592.857143%" y2="50%" id="linearGradient-20">
            <stop stop-color="#E28762" stop-opacity="0.66" offset="4%"></stop>
            <stop stop-color="#E1A74F" offset="44%"></stop>
            <stop stop-color="#DFAA6B" offset="100%"></stop>
        </linearGradient>
    </defs>
    <g id="首頁" stroke="none" stroke-width="1" fill="none" fill-rule="evenodd">
        <g id="1-首頁" transform="translate(-1241.000000, -810.000000)">
            <g id="浮球" transform="translate(1241.000000, 806.000000)">
                <g id="浮球_紅包" transform="translate(0.000000, 8.000000)">
                    <g>
                        <g>
                            <path d="M7.28793791,14.2175935 C5.2310368,14.9105602 4.50287181,15.6035268 3.70211031,17.6230297 C3.67618417,17.6999927 3.60403139,17.7518236 3.52281893,17.7518236 C3.44160646,17.7518236 3.36945369,17.6999927 3.34352755,17.6230297 C2.75615579,15.6035268 2.09838741,14.9105602 0.116282703,14.2175935 C0.0426109553,14.18616 -0.00369486597,14.1121755 0.000231567591,14.0321744 C0.00415800115,13.9521734 0.0574860998,13.8830789 0.133881857,13.8590107 C2.19078297,13.1638441 2.92114785,12.4708774 3.71970946,10.4513745 C3.7456356,10.3744116 3.81778838,10.3225806 3.89900084,10.3225806 C3.98021331,10.3225806 4.05236608,10.3744116 4.07829222,10.4513745 C4.66566398,12.4708774 5.32343236,13.1638441 7.30773696,13.8590107 C7.38358481,13.8889131 7.43174581,13.9640422 7.42725103,14.0454476 C7.42275626,14.1268531 7.36661677,14.1962233 7.28793791,14.2175935 Z" id="Path" fill="#DFAA6B" fill-rule="nonzero"></path>
                            <g id="Group-11" transform="translate(5.161290, 0.000000)">
                                <g id="Group-6" transform="translate(0.000000, 0.137025)">
                                    <g id="Group-3" transform="translate(3.556452, 0.000000)">
                                        <mask id="mask-2" fill="white">
                                            <use xlink:href="#path-1"></use>
                                        </mask>
                                        <g id="Clip-2"></g>
                                        <line x1="0.153215323" y1="0.0323298387" x2="0.153215323" y2="7.45159597" id="Stroke-1" stroke="#E6B43E" stroke-width="0.5" mask="url(#mask-2)"></line>
                                    </g>
                                    <line x1="7.41926613" y1="3.74192903" x2="0" y2="3.74192903" id="Stroke-4" stroke="#E6B43E" stroke-width="0.5"></line>
                                </g>
                                <line x1="5.72554839" y1="1.86307258" x2="1.69371774" y2="5.89490323" id="Stroke-7" stroke="#E6B43E" stroke-width="0.5" stroke-linecap="round" stroke-linejoin="round" stroke-dasharray="0.8467741935483871,0.9013065215080015,0.5006129126394948,1.001395179379371"></line>
                                <line x1="5.72554839" y1="5.89483548" x2="1.69371774" y2="1.86300484" id="Stroke-9" stroke="#E6B43E" stroke-width="0.5" stroke-linecap="round" stroke-linejoin="round" stroke-dasharray="0.8467741935483871,0.9013065215080015,0.5006129126394948,1.001395179379371"></line>
                            </g>
                            <g id="Group-11" transform="translate(30.322581, 12.258065)">
                                <g id="Group-6" transform="translate(0.000000, 0.195750)">
                                    <g id="Group-3" transform="translate(5.080645, 0.000000)">
                                        <mask id="mask-4" fill="white">
                                            <use xlink:href="#path-3"></use>
                                        </mask>
                                        <g id="Clip-2"></g>
                                        <line x1="0.218879032" y1="0.0461854839" x2="0.218879032" y2="10.6451371" id="Stroke-1" stroke="#E6B43E" stroke-width="0.5" mask="url(#mask-4)"></line>
                                    </g>
                                    <line x1="10.5989516" y1="5.3456129" x2="0" y2="5.3456129" id="Stroke-4" stroke="#E6B43E" stroke-width="0.5"></line>
                                </g>
                                <line x1="8.17935484" y1="2.66153226" x2="2.41959677" y2="8.42129032" id="Stroke-7" stroke="#E6B43E" stroke-width="0.5" stroke-linecap="round" stroke-linejoin="round" stroke-dasharray="1.209677419354839,1.287580690076274,0.7151612927836757,1.43056454197053"></line>
                                <line x1="8.17935484" y1="8.42119355" x2="2.41959677" y2="2.66143548" id="Stroke-9" stroke="#E6B43E" stroke-width="0.5" stroke-linecap="round" stroke-linejoin="round" stroke-dasharray="1.209677419354839,1.287580690076274,0.7151612927836757,1.43056454197053"></line>
                            </g>
                            <path d="M33.0565173,6.65947874 C31.9257717,7.04226034 31.5165914,7.42284204 31.0766125,8.53598852 C31.0612503,8.57737551 31.0217634,8.60483797 30.9776173,8.60483797 C30.9334712,8.60483797 30.8939843,8.57737551 30.8786221,8.53598852 C30.5552376,7.42284204 30.1922551,7.04226034 29.1011075,6.65947874 C29.0597205,6.64411654 29.0322581,6.60462962 29.0322581,6.5604835 C29.0322581,6.51633738 29.0597205,6.47685046 29.1011075,6.46148826 C30.234053,6.08090656 30.6410335,5.69812496 31.0810123,4.58497848 C31.0963745,4.54359149 31.1358614,4.51612903 31.1800076,4.51612903 C31.2241537,4.51612903 31.2636406,4.54359149 31.2790028,4.58497848 C31.6023873,5.69812496 31.9631699,6.08090656 33.0565173,6.46148826 C33.0979043,6.47685046 33.1253668,6.51633738 33.1253668,6.5604835 C33.1253668,6.60462962 33.0979043,6.64411654 33.0565173,6.65947874 Z" id="Path" fill="#DFAA6B" fill-rule="nonzero"></path>
                            <g id="Group-12" filter="url(#filter-5)" transform="translate(20.754432, 23.755354) rotate(-6.000000) translate(-20.754432, -23.755354) translate(11.754432, 6.755354)">
                                <mask id="mask-8" fill="white">
                                    <use xlink:href="#path-7"></use>
                                </mask>
                                <use id="Rectangle" fill="url(#linearGradient-6)" fill-rule="nonzero" transform="translate(8.927413, 16.890026) rotate(-179.610000) translate(-8.927413, -16.890026) " xlink:href="#path-7"></use>
                                <path d="M0.748810153,10.5984973 C0.748810153,10.5984973 3.34908514,9.61734447 5.21459545,11.7314428 C7.08010576,13.8455412 8.5540349,13.7443461 9.73317821,13.4495602 C11.1345108,13.099777 12.2278583,13.5111573 14.0933686,15.3282699 C15.853284,17.030988 17.4900053,16.3952186 17.4900053,16.3952186" id="Path" stroke="url(#linearGradient-9)" stroke-width="0.5" mask="url(#mask-8)"></path>
                                <path d="M2.20306583,0.130212641 L15.8424101,0.130212641 C16.2725898,0.129049657 16.6855511,0.299119058 16.9901476,0.602890156 C17.2947442,0.906661255 17.465932,1.31915949 17.465932,1.74934079 L17.465932,4.4552107 L0.583943672,4.4552107 L0.583943672,1.74934079 C0.583943672,0.85512431 1.30884935,0.130212641 2.20306583,0.130212641 Z" id="Path" fill="url(#linearGradient-10)" fill-rule="nonzero" mask="url(#mask-8)" transform="translate(9.024938, 2.292712) rotate(-179.610000) translate(-9.024938, -2.292712) "></path>
                                <line x1="3.49427816" y1="23.7890631" x2="3.49427816" y2="25.8679632" id="Path" stroke="url(#linearGradient-11)" stroke-width="0.5" mask="url(#mask-8)"></line>
                                <line x1="2.45372819" y1="24.8274132" x2="4.53482813" y2="24.8274132" id="Path" stroke="url(#linearGradient-12)" stroke-width="0.5" mask="url(#mask-8)"></line>
                                <line x1="2.92890534" y1="24.2642403" x2="4.05965098" y2="25.392786" id="Path" stroke="url(#linearGradient-13)" stroke-width="0.5" stroke-linecap="round" stroke-linejoin="round" stroke-dasharray="0.1121946015665608" mask="url(#mask-8)"></line>
                                <line x1="2.92890534" y1="25.392786" x2="4.05965098" y2="24.2642403" id="Path" stroke="url(#linearGradient-13)" stroke-width="0.5" stroke-linecap="round" stroke-linejoin="round" stroke-dasharray="0.1121946015665608" mask="url(#mask-8)"></line>
                                <line x1="13.5279958" y1="20.3726274" x2="13.5279958" y2="22.9575031" id="Path" stroke="url(#linearGradient-14)" stroke-width="0.5" mask="url(#mask-8)"></line>
                                <line x1="12.8262295" y1="20.962199" x2="14.229762" y2="22.3679315" id="Path" stroke="url(#linearGradient-15)" stroke-width="0.5" stroke-linecap="round" stroke-linejoin="round" stroke-dasharray="0.1407932273803219" mask="url(#mask-8)"></line>
                                <line x1="12.8262295" y1="22.3679315" x2="14.229762" y2="20.962199" id="Path" stroke="url(#linearGradient-15)" stroke-width="0.5" stroke-linecap="round" stroke-linejoin="round" stroke-dasharray="0.1407932273803219" mask="url(#mask-8)"></line>
                                <path d="M0.372628239,33.5785925 L0.32643046,29.4163926 C0.32643046,29.4163926 1.25038604,27.5882805 3.62627181,28.5980319 C6.00215759,29.6077834 7.14610259,31.1697083 9.06881015,30.1225586 C10.9915177,29.075409 12.9076256,30.2655518 14.4651507,30.8419241 C15.624495,31.2819029 17.2722158,31.2005068 17.2722158,31.2005068 L17.2480169,33.7083863 L0.372628239,33.5785925 Z" id="Path" fill="url(#linearGradient-16)" fill-rule="nonzero" mask="url(#mask-8)"></path>
                                <path d="M0.357228979,27.9182646 C0.357228979,27.9182646 1.28118456,26.0901525 3.65707033,27.099904 C6.03295611,28.1096554 7.17690111,29.6715803 9.09960867,28.6266306 C11.0223162,27.5816808 12.9362242,28.7674238 14.4937493,29.345996 C15.6552935,29.7859748 17.3008144,29.7023788 17.3008144,29.7023788" id="Path" stroke="url(#linearGradient-17)" stroke-width="0.5" mask="url(#mask-8)"></path>
                                <path d="M14.8105341,26.6401261 C14.7903141,27.1059858 14.3964513,27.467355 13.9305764,27.4474873 L13.1342147,27.4122889 C12.884105,27.4005934 12.6521532,27.2782659 12.5012441,27.0784707 C12.3503349,26.8786755 12.2961034,26.6221125 12.3532522,26.3783387 C12.4962454,25.7667681 12.6964357,25.0958003 12.898826,25.0716015 C13.2288102,25.0298035 13.3388049,25.350988 13.3388049,25.6611731 C13.327908,25.8243716 13.4294991,25.974037 13.585193,26.0241557 C13.7910688,26.0576336 13.9861601,25.9210697 14.0251719,25.7161705 C14.1219672,25.3883863 14.2451613,25.1067998 14.4651507,25.1507977 C14.7995346,25.2123947 14.8281333,25.997757 14.8105341,26.6401261 Z M14.0185722,26.2001472 C13.9799438,26.1657196 13.9294854,26.1475861 13.877779,26.1495497 C13.7918909,26.1626355 13.7050597,26.1685224 13.6181914,26.1671488 C13.5059968,26.1671488 13.23101,26.1121515 13.2178107,26.2507448 C13.2024114,26.4267363 13.565394,26.4707342 13.7083871,26.4575348 C13.8513802,26.4443355 14.126367,26.2969426 14.0185722,26.1891478 L14.0185722,26.2001472 Z M14.5355473,25.6061758 C14.5405827,25.5243122 14.4787616,25.4536594 14.396954,25.4477834 C14.3364653,25.4434386 14.2793385,25.4760433 14.2523158,25.5303344 C14.2252931,25.5846256 14.233722,25.6498597 14.2736566,25.6954994 C14.3135913,25.741139 14.3771293,25.7581527 14.4345271,25.7385759 C14.4919249,25.7189991 14.5318242,25.6667059 14.5355473,25.6061758 L14.5355473,25.6061758 Z M13.066018,25.5643778 C13.0710533,25.4825142 13.0092322,25.4118615 12.9274246,25.4059854 C12.866936,25.4016406 12.8098092,25.4342453 12.7827865,25.4885365 C12.7557638,25.5428276 12.7641926,25.6080617 12.8041273,25.6537014 C12.844062,25.699341 12.9075999,25.7163547 12.9649977,25.6967779 C13.0223955,25.6772011 13.0622948,25.6249079 13.066018,25.5643778 L13.066018,25.5643778 Z" id="Shape" fill="#DFAA6B" fill-rule="nonzero" mask="url(#mask-8)"></path>
                                <g id="Group" mask="url(#mask-8)" fill-rule="nonzero">
                                    <g transform="translate(-3.870968, 8.211612)" id="Path">
                                        <path d="M11.2964569,9.93472237 L8.87657324,9.93472237 C8.65498089,9.93938901 8.47645935,10.1179106 8.4717927,10.3395029 L8.4717927,10.3395029 C8.4717927,10.5679169 8.65695883,10.753083 8.88537282,10.753083 L10.4252988,10.753083 C10.6537128,10.753083 10.8388789,10.9382492 10.8388789,11.1666631 L10.8388789,11.274458 C10.8388789,11.5028719 10.6537128,11.6880381 10.4252988,11.6880381 L9.85112639,11.6880381 C9.6223538,11.6880349 9.43655681,11.8728488 9.43534638,12.1016182 L9.43534638,12.1544157 C9.43772283,12.2660032 9.39489721,12.373814 9.31659891,12.4533552 C9.2383006,12.5328963 9.13117745,12.5774143 9.01956637,12.5768017 L1.79071391,12.5768017 C1.56229992,12.5768017 1.37713379,12.3916292 1.37713379,12.1632152 L1.37713379,12.0554204 C1.37713379,11.8270064 1.56229992,11.6418403 1.79071391,11.6418403 L1.84571126,11.6418403 C1.95694132,11.6418655 2.06349289,11.5970861 2.14131219,11.5176111 C2.2191315,11.4381361 2.26165798,11.3306655 2.25929138,11.2194606 L2.25929138,11.2194606 C2.25929138,10.9910466 2.07412525,10.8058805 1.84571126,10.8058805 L0.422379693,10.8058805 C0.312684345,10.8082393 0.206547271,10.7669123 0.127330216,10.6909959 C0.0481131602,10.6150796 0.00230912551,10.5107964 0,10.4010999 L0,10.2933051 C0,10.0648911 0.185166125,9.87972501 0.413580116,9.87972501 L3.51983078,9.87972501 C3.6321899,9.8821309 3.74068996,9.8387079 3.82036528,9.75944755 C3.90004061,9.6801872 3.9440296,9.57191537 3.94221047,9.45954521 L3.94221047,9.45954521 C3.94047885,9.34946401 3.89492794,9.24461635 3.81564734,9.16822619 C3.73636674,9.09183603 3.62990039,9.05020872 3.51983078,9.05256478 L2.49028027,9.05256478 C2.26186628,9.05256478 2.07670016,8.86739866 2.07670016,8.63898466 L2.07670016,8.53118985 C2.07670016,8.30277586 2.26186628,8.11760973 2.49028027,8.11760973 L8.91837123,8.11760973 C9.14678522,8.11760973 9.33195135,8.30277586 9.33195135,8.53118985 L9.33195135,8.57958752 C9.33315409,8.80750146 9.51761752,8.9919649 9.74553146,8.99316764 L11.2854574,8.99316764 C11.5138714,8.99316764 11.6990944,9.17833376 11.6990944,9.40674775 L11.6990944,9.51234268 C11.7027568,9.73946992 11.5235011,9.92754146 11.2964569,9.93472237 L11.2964569,9.93472237 Z" fill="url(#linearGradient-18)"></path>
                                        <path d="M26.2997356,1.90510841 L23.483871,1.90510841 C23.255457,1.90510841 23.0702909,2.09027453 23.0702909,2.31868852 L23.0702909,2.31868852 C23.0702909,2.54710252 23.255457,2.73226864 23.483871,2.73226864 L25.1447911,2.73226864 C25.2544794,2.73226864 25.3596751,2.77584214 25.4372364,2.85340345 C25.5147977,2.93096477 25.5583712,3.03616049 25.5583712,3.14584876 L25.5583712,3.25364357 C25.5583712,3.48205757 25.3732051,3.66722369 25.1447911,3.66722369 L24.5816182,3.66722369 C24.4719299,3.66722369 24.3667342,3.71079719 24.2891729,3.7883585 C24.2116116,3.86591982 24.1680381,3.97111554 24.1680381,4.08080381 L24.1680381,4.13580116 C24.1680509,4.3625079 23.9855517,4.54696951 23.7588577,4.54938128 L16.5234056,4.54938128 C16.294633,4.54938128 16.108836,4.36457054 16.1076256,4.13580116 L16.1076256,4.02800635 C16.108836,3.79923696 16.294633,3.61442303 16.5234056,3.61442623 L16.5762031,3.61442623 C16.8046171,3.61442623 16.9897832,3.4292601 16.9897832,3.20084611 L16.9897832,3.20084611 C16.9897832,2.97243212 16.8046171,2.787266 16.5762031,2.787266 L15.1528715,2.787266 C14.9244575,2.787266 14.7392914,2.60209987 14.7392914,2.37368588 L14.7392914,2.26589106 C14.7392914,2.03747707 14.9244575,1.85231095 15.1528715,1.85231095 L18.2591222,1.85231095 C18.4875361,1.85231095 18.6727023,1.66714482 18.6727023,1.43873083 L18.6727023,1.43873083 C18.6727023,1.21031684 18.4875361,1.02515071 18.2591222,1.02515071 L17.2207721,1.02515071 C16.9923581,1.02515071 16.807192,0.839984589 16.807192,0.611570598 L16.807192,0.50377578 C16.807192,0.275361789 16.9923581,0.0901956637 17.2207721,0.0901956637 L23.648863,0.0901956637 C23.877277,0.0901956637 24.0624432,0.275361789 24.0624432,0.50377578 L24.0624432,0.556573242 C24.0636536,0.785342623 24.2494506,0.97015656 24.4782232,0.970153358 L26.2997356,0.970153358 C26.4094239,0.970153358 26.5146196,1.01372685 26.5921809,1.09128817 C26.6697422,1.16884949 26.7133157,1.27404521 26.7133157,1.38373347 L26.7133157,1.49152829 C26.7133157,1.71994228 26.5281496,1.90510841 26.2997356,1.90510841 Z" fill="url(#linearGradient-19)"></path>
                                    </g>
                                </g>
                                <line x1="12.234458" y1="21.6661652" x2="14.8215336" y2="21.6661652" id="Path" stroke="url(#linearGradient-20)" stroke-width="0.5" mask="url(#mask-8)"></line>
                            </g>
                        </g>
                    </g>
                </g>
            </g>
        </g>
    </g>
</svg>