<svg xmlns="http://www.w3.org/2000/svg" width="20" height="21" viewBox="1 1 20 22">
    <g fill="none" fill-rule="evenodd">
        <path d="M0 0h22v22H0z"/>
        <path fill="#595959" d="M16.982 19.886a.93.93 0 1 1 .002-1.862.93.93 0 0 1-.002 1.861zm-8.854 0a.93.93 0 1 1 .002-1.862.93.93 0 0 1-.002 1.861zM18.475 8.114v3.98c0 .533-.43.963-.959.963H6.496a.96.96 0 0 1-.959-.959V6.331l12.938 1.782zm1.5-.782l.012-.01-.062-.162-.117-.184h-.002l-.332-.245h-.05a.19.19 0 0 0-.045-.01L5.542 4.809V3.035c0-.024 0-.054-.007-.087 0-.011-.004-.022-.007-.034l-.02-.1-.003.002-.017-.067a.27.27 0 0 0-.025-.052l-.025-.049c-.006-.01-.012-.018-.015-.018h-.002l-.004-.003-.17.096.148-.139-.048-.06-.166.116.127-.155-.097-.08-.03-.02-.03-.016-.003.004-3.1-1.315a.756.756 0 0 0-.587 1.392l2.566 1.083V15.56c0 1.141.79 2.126 1.875 2.394a2.444 2.444 0 0 0-.218 1.005 2.443 2.443 0 0 0 2.44 2.44 2.444 2.444 0 0 0 2.256-3.37h4.343a2.443 2.443 0 0 0 2.255 3.37 2.443 2.443 0 0 0 2.44-2.44 2.444 2.444 0 0 0-2.44-2.44H6.496a.96.96 0 0 1-.959-.96v-1.181c.302.124.628.19.96.19h11.02a2.472 2.472 0 0 0 2.468-2.47V7.413c0-.014 0-.04-.009-.073v-.008z"/>
    </g>
</svg>
