<?xml version="1.0" encoding="UTF-8"?>
<svg width="162px" height="169px" viewBox="0 0 162 169" version="1.1" xmlns="http://www.w3.org/2000/svg" xmlns:xlink="http://www.w3.org/1999/xlink">
    <!-- Generator: Sketch 61.2 (89653) - https://sketch.com -->
    <title>浮球_小蛙</title>
    <desc>Created with Sketch.</desc>
    <defs>
        <filter x="-31.2%" y="-28.7%" width="163.3%" height="158.1%" filterUnits="objectBoundingBox" id="filter-1">
            <feOffset dx="0" dy="0" in="SourceAlpha" result="shadowOffsetOuter1"></feOffset>
            <feGaussianBlur stdDeviation="10" in="shadowOffsetOuter1" result="shadowBlurOuter1"></feGaussianBlur>
            <feColorMatrix values="0 0 0 0 0   0 0 0 0 0   0 0 0 0 0  0 0 0 0.12 0" type="matrix" in="shadowBlurOuter1" result="shadowMatrixOuter1"></feColorMatrix>
            <feMerge>
                <feMergeNode in="shadowMatrixOuter1"></feMergeNode>
                <feMergeNode in="SourceGraphic"></feMergeNode>
            </feMerge>
        </filter>
        <linearGradient x1="53.7135321%" y1="62.4419937%" x2="46.7356236%" y2="43.8838947%" id="linearGradient-2">
            <stop stop-color="#C64229" offset="0%"></stop>
            <stop stop-color="#D75345" offset="100%"></stop>
        </linearGradient>
        <linearGradient x1="53.7135321%" y1="76.232726%" x2="46.7356236%" y2="37.1047905%" id="linearGradient-3">
            <stop stop-color="#C33F24" offset="0%"></stop>
            <stop stop-color="#D75445" offset="100%"></stop>
        </linearGradient>
        <linearGradient x1="53.7135321%" y1="60.7062733%" x2="46.7356236%" y2="44.737122%" id="linearGradient-4">
            <stop stop-color="#C33F24" offset="0%"></stop>
            <stop stop-color="#D75445" offset="100%"></stop>
        </linearGradient>
        <linearGradient x1="53.7135321%" y1="76.5370567%" x2="46.7356236%" y2="36.9551908%" id="linearGradient-5">
            <stop stop-color="#C33F24" offset="0%"></stop>
            <stop stop-color="#D75445" offset="100%"></stop>
        </linearGradient>
        <linearGradient x1="50%" y1="0%" x2="50%" y2="74.0417907%" id="linearGradient-6">
            <stop stop-color="#09B0A7" offset="0%"></stop>
            <stop stop-color="#0DA495" offset="100%"></stop>
        </linearGradient>
        <polygon id="path-7" points="0.209835794 0.222572903 22.117471 0.222572903 22.117471 30.0731923 0.209835794 30.0731923"></polygon>
        <linearGradient x1="50%" y1="0%" x2="50%" y2="74.0417907%" id="linearGradient-9">
            <stop stop-color="#09B0A7" offset="0%"></stop>
            <stop stop-color="#0DA495" offset="100%"></stop>
        </linearGradient>
        <linearGradient x1="0.00141707569%" y1="50.010008%" x2="99.9926587%" y2="50.010008%" id="linearGradient-10">
            <stop stop-color="#DC5851" offset="0%"></stop>
            <stop stop-color="#E96C6B" offset="100%"></stop>
        </linearGradient>
        <linearGradient x1="-1.49015468%" y1="50.010008%" x2="101.48423%" y2="50.010008%" id="linearGradient-11">
            <stop stop-color="#E7B986" offset="23%"></stop>
            <stop stop-color="#DFAA6B" offset="100%"></stop>
        </linearGradient>
        <linearGradient x1="50%" y1="0%" x2="50%" y2="74.0417907%" id="linearGradient-12">
            <stop stop-color="#00D4C9" offset="0%"></stop>
            <stop stop-color="#00A998" offset="100%"></stop>
        </linearGradient>
        <linearGradient x1="50%" y1="0%" x2="50%" y2="74.0417907%" id="linearGradient-13">
            <stop stop-color="#10C0AE" offset="0%"></stop>
            <stop stop-color="#249791" offset="100%"></stop>
        </linearGradient>
        <linearGradient x1="50%" y1="0%" x2="50%" y2="74.0417907%" id="linearGradient-14">
            <stop stop-color="#10C0AE" offset="0%"></stop>
            <stop stop-color="#249791" offset="100%"></stop>
        </linearGradient>
        <linearGradient x1="50%" y1="0%" x2="50%" y2="74.0417907%" id="linearGradient-15">
            <stop stop-color="#00D4C9" offset="0%"></stop>
            <stop stop-color="#00A998" offset="100%"></stop>
        </linearGradient>
        <linearGradient x1="-86.6400064%" y1="64.2411053%" x2="-88.8393459%" y2="27.6522843%" id="linearGradient-16">
            <stop stop-color="#D2453B" offset="0%"></stop>
            <stop stop-color="#E46C47" offset="100%"></stop>
        </linearGradient>
        <linearGradient x1="100%" y1="50.0033965%" x2="0%" y2="50.0033965%" id="linearGradient-17">
            <stop stop-color="#D2453B" offset="0%"></stop>
            <stop stop-color="#C83E30" offset="100%"></stop>
        </linearGradient>
        <linearGradient x1="100%" y1="50.0033965%" x2="0%" y2="50.0033965%" id="linearGradient-18">
            <stop stop-color="#D2453B" offset="0%"></stop>
            <stop stop-color="#C83E30" offset="100%"></stop>
        </linearGradient>
        <linearGradient x1="50%" y1="0%" x2="50%" y2="100%" id="linearGradient-19">
            <stop stop-color="#6F1B1A" offset="0%"></stop>
            <stop stop-color="#813130" offset="100%"></stop>
        </linearGradient>
        <linearGradient x1="50%" y1="0%" x2="50%" y2="100%" id="linearGradient-20">
            <stop stop-color="#CF4640" offset="0%"></stop>
            <stop stop-color="#A9312E" offset="100%"></stop>
        </linearGradient>
        <linearGradient x1="-113.225036%" y1="65.8928657%" x2="-121.380497%" y2="49.2522139%" id="linearGradient-21">
            <stop stop-color="#FCC5A1" offset="0%"></stop>
            <stop stop-color="#DFAA6B" offset="100%"></stop>
        </linearGradient>
        <linearGradient x1="-237.695376%" y1="50.0156837%" x2="-137.684907%" y2="50.0156837%" id="linearGradient-22">
            <stop stop-color="#E8BB89" stop-opacity="0" offset="7%"></stop>
            <stop stop-color="#DFAA6B" stop-opacity="0.3" offset="100%"></stop>
        </linearGradient>
    </defs>
    <g id="首頁" stroke="none" stroke-width="1" fill="none" fill-rule="evenodd">
        <g id="1-首頁" transform="translate(-1235.000000, -809.000000)">
            <g id="浮球" transform="translate(1241.000000, 806.000000)">
                <g id="浮球_小蛙" transform="translate(11.000000, 22.000000)">
                    <g filter="url(#filter-1)">
                        <path d="M60.6774194,65.7908037 C71.9243317,65.7908037 81.6366161,70.8312056 86.1851251,78.128006 C100.064948,79.5032233 110.788656,88.6041112 110.788656,99.6263792 C110.788656,102.222338 110.193818,104.711718 109.102999,107.018686 C111.109468,108.436353 113.206936,109.208426 115.394563,109.335148 C119.808363,109.590823 123.121197,109.531752 125.333066,109.157937 C121.307319,117.199829 114.741579,121.295113 105.635844,121.443791 C101.887769,121.504989 98.1576734,120.78646 94.4455582,119.288202 C94.0733473,119.421268 93.6963473,119.548319 93.3151489,119.669157 C88.3502434,125.894377 79.4043453,130.048868 69.1935484,130.048868 C60.2365745,130.048868 52.2529285,126.852026 47.0757204,121.864564 C43.0585447,124.550233 37.7946187,126.1779 32.0322581,126.1779 C19.418787,126.1779 9.19354839,118.37899 9.19354839,108.758546 C9.19354839,107.199439 9.46210451,105.688172 9.96585934,104.250189 C5.67067926,101.08383 3,96.6429372 3,91.7262876 C3,82.1058436 13.2252386,74.3069327 25.8387097,74.3069327 C29.6709407,74.3069327 33.2827215,75.026826 36.4542652,76.2989785 C41.3983941,70.0023269 50.3967752,65.7908037 60.6774194,65.7908037 Z" id="Combined-Shape" stroke="#E6B43E" stroke-width="1.5483871" fill="url(#linearGradient-2)" fill-rule="nonzero" transform="translate(64.166533, 97.919836) rotate(-5.000000) translate(-64.166533, -97.919836) "></path>
                        <ellipse id="Oval" fill="url(#linearGradient-3)" fill-rule="nonzero" cx="26.3360473" cy="95.4886877" rx="22.8387097" ry="17.4193548"></ellipse>
                        <path d="M115.066166,102.038567 C119.41071,101.218853 122.610849,100.36009 124.666582,99.4622792 C122.705926,108.239209 117.325955,113.801242 108.526668,116.14838 C99.7273808,118.495518 89.9177132,116.351581 79.0976652,109.716567 C75.82028,102.865032 75.3455451,98.1247097 77.6734608,95.4956018 C80.0013764,92.8664939 84.7418198,92.7891978 91.894791,95.2637134 C102.99783,100.599997 110.721621,102.858282 115.066166,102.038567 Z" id="Path-5" fill="url(#linearGradient-4)" fill-rule="nonzero" transform="translate(100.444923, 105.266212) rotate(12.000000) translate(-100.444923, -105.266212) "></path>
                        <ellipse id="Oval" fill="url(#linearGradient-5)" fill-rule="nonzero" cx="69.0777496" cy="107.061568" rx="28.2580645" ry="21.6774194"></ellipse>
                        <ellipse id="Oval" fill="url(#linearGradient-3)" fill-rule="nonzero" cx="33.6033897" cy="110.23891" rx="22.8387097" ry="17.4193548"></ellipse>
                        <path d="M94.6441827,117.697841 C96.8994098,115.128912 97.1821865,112.734898 95.4925128,110.515798 C92.9580022,107.187149 88.516873,109.305808 87.597597,111.869874 C86.6783209,114.433939 89.5315047,117.323556 92.0878437,116.03041 C94.6441827,114.737263 93.4368241,110.515798 90.9497982,111.869874" id="Path-2" stroke="#E6B43E" stroke-width="0.774193548" stroke-linecap="round"></path>
                        <g id="Group-6" transform="translate(57.163088, 86.751339) scale(-1, 1) translate(-57.163088, -86.751339) translate(26.163088, 67.251339)">
                            <path d="M19.2686903,32.3754581 C19.2686903,32.3754581 4.21318065,10.9768645 6.41316774,3.60979355 L16.1430774,3.60979355 C16.1430774,3.60979355 18.2853484,25.4105032 24.1049226,28.5992516 C24.1049226,28.5992516 26.4393097,26.5087355 28.721129,28.8436645 C31.0029484,31.1785935 21.1156065,34.7710839 21.1156065,34.7710839 L19.2686903,32.3754581 Z" id="Fill-1" fill="url(#linearGradient-6)" fill-rule="nonzero" transform="translate(17.628295, 19.190439) rotate(28.000000) translate(-17.628295, -19.190439) "></path>
                            <g id="Group-5" transform="translate(38.400000, 2.371084)">
                                <mask id="mask-8" fill="white">
                                    <use xlink:href="#path-7"></use>
                                </mask>
                                <g id="Clip-4"></g>
                                <path d="M12.7351045,27.7783665 C12.7351045,27.7783665 -1.68715355,7.27965677 0.420162581,0.222572903 L9.74091097,0.222572903 C9.74091097,0.222572903 11.7929497,21.1063277 17.36784,24.1609471 C17.36784,24.1609471 19.6041368,22.1584955 21.7900335,24.3950632 C23.9756594,26.631631 14.5045239,30.0731923 14.5045239,30.0731923 L12.7351045,27.7783665 Z" id="Fill-3" fill="url(#linearGradient-9)" fill-rule="nonzero" mask="url(#mask-8)" transform="translate(11.163660, 15.147883) rotate(19.000000) translate(-11.163660, -15.147883) "></path>
                            </g>
                        </g>
                        <path d="M49.730936,73.4377803 C51.7988366,71.3258819 54.8148916,74.2869395 53.5235537,75.9852579 C51.8384347,78.2005514 46.028514,78.4469395 42.9904601,75.6530738 C41.3053411,74.1021484 42.3634902,71.5172727 42.3634902,71.5172727" id="Path" stroke="url(#linearGradient-11)" stroke-width="0.5" fill="url(#linearGradient-10)" fill-rule="nonzero" stroke-linecap="round" stroke-linejoin="round"></path>
                        <path d="M51.9748281,37.5289067 C51.9748281,37.5289067 42.9222634,46.4340786 34.2678794,42.2080818 C25.6134955,37.9820849 19.4537916,28.5159401 19.4537916,28.5159401 C19.4537916,28.5159401 17.3198942,21.0362996 15.3047911,22.7610167 C13.289688,24.4857338 15.0144051,26.5008369 15.0144051,26.5008369 C15.0144051,26.5008369 9.00869381,23.1086 7.27957694,26.5250358 C5.55046007,29.9414715 16.5191327,31.4242002 16.5191327,31.4242002 C16.5191327,31.4242002 26.1546695,47.2194408 36.8571549,49.3071405 C47.5596404,51.3948401 55.6882496,40.9475424 55.6882496,40.9475424 L51.9748281,37.5289067 Z" id="Path" fill="#45B098" fill-rule="nonzero"></path>
                        <path d="M33.7267054,76.9312124 C33.7267054,76.9312124 33.7729032,0.000910965491 45.2629508,0.000910965491 C56.7529984,0.000910965491 44.7613749,22.5388274 59.6392597,21.8018628 C71.0589106,21.23649 62.939101,0.000910965491 76.1978636,0.000910965491 C89.4566261,0.000910965491 81.3610153,78.5481347 77.2054151,83.533095 C71.5318879,82.4529469 67.6666737,85.6449935 66.8153146,79.8900701 C65.1191962,68.4616196 61.7709572,67.6894567 54.3397144,68.1250358 C48.4549974,68.4726191 52.3356108,65.4851627 48.5605923,76.9730104 C45.9207192,84.989425 43.9892121,79.7712759 41.9389106,79.6128835 C34.2986779,79.0255117 43.115854,74.3221378 43.115854,74.3221378 L33.7267054,76.9312124 Z" id="Path" fill="url(#linearGradient-12)" fill-rule="nonzero"></path>
                        <circle id="Oval" fill="#323232" fill-rule="nonzero" cx="73.4677948" cy="11.7285471" r="2.65087255"></circle>
                        <circle id="Oval" fill="#323232" fill-rule="nonzero" cx="44.1938022" cy="10.5802023" r="2.65087255"></circle>
                        <path d="M46.2331042,0.146103985 C46.2331042,0.146103985 48.8861766,0.293496899 49.1809625,4.41829859 C49.4757483,8.54310028 48.4439979,18.8540046 52.7161925,20.9175054 C56.9883871,22.9810062 58.6075093,21.7974631 58.6075093,21.7974631 C58.6075093,21.7974631 51.5370492,21.6500701 51.9792279,12.3709163 C52.4214067,3.09176237 50.5052988,0.146103985 46.2331042,0.146103985 Z" id="Path" fill="url(#linearGradient-13)" fill-rule="nonzero"></path>
                        <path d="M76.1978636,0.000910965491 C76.1978636,0.000910965491 77.6101957,-0.293874862 79.6736965,9.72224359 C80.7362454,14.8853954 77.9511793,46.2844858 77.9511793,72.5600225 C78.2635643,84.5384467 79.0995241,83.3747026 79.0995241,83.3747026 C79.0995241,83.3747026 78.5143522,85.4030051 80.7956425,79.4676904 C85.2328292,67.9358449 84.4188683,49.0277539 83.4245161,25.3370929 C82.8635431,11.917738 81.9725859,1.06565978 76.1978636,0.000910965491 Z" id="Path" fill="url(#linearGradient-14)" fill-rule="nonzero"></path>
                        <path d="M82.2123744,37.7906941 L93.1018509,68.9829945 C93.1018509,68.9829945 102.077419,71.5876693 100.383501,76.3878385 C99.2835537,79.4896894 93.3988366,73.8007629 93.3988366,73.8007629 C93.3988366,73.8007629 94.6769751,77.0148084 93.1018509,77.4481875 C91.5267266,77.8815667 90.1737916,71.6756651 90.1737916,71.6756651 C90.1737916,71.6756651 78.7541407,58.8106836 77.1944157,47.1094461 C76.833633,44.4849723 82.2123744,37.7906941 82.2123744,37.7906941 Z" id="Path" fill="url(#linearGradient-15)" fill-rule="nonzero"></path>
                        <ellipse id="Oval" fill="#323232" fill-rule="nonzero" cx="58.3413221" cy="27.2971986" rx="5.25774722" ry="3.19864622"></ellipse>
                        <path d="M83.5037123,38.1492769 L59.0474881,38.7366487 L36.1245902,38.1492769 C36.1245902,38.1492769 34.9476467,48.7285683 31.0648334,58.5444964 C26.9510312,68.9697952 23.0308197,72.3312335 23.4861978,76.6452261 C23.4861978,76.6452261 36.8175568,83.304306 48.7475833,83.3747026 C49.959725,83.3747026 54.077927,83.9554747 55.3274669,83.9382676 C57.6615547,83.907077 59.1838815,82.3979496 61.5707668,82.263756 C70.4847382,81.7599802 83.8534955,84.1930633 90.103395,81.2760035 C90.811761,76.7882193 85.3648228,68.3934229 85.0106399,59.9590284 C84.4914648,47.4020321 83.5037123,38.1492769 83.5037123,38.1492769 Z" id="Path" fill="url(#linearGradient-16)" fill-rule="nonzero"></path>
                        <path d="M85.3933405,43.2230148 C81.4491237,46.0637841 79.7188422,50.2088576 80.2024959,55.6582351 C80.6861496,61.1076127 81.5380831,65.5507043 82.7582963,68.9875099 L97.2134532,62.961884 C94.8568882,55.1574039 91.3341243,48.5777808 86.6451613,43.2230148 C84.0490029,42.0814689 83.6317293,42.0814689 85.3933405,43.2230148 Z" id="Path-3" fill="url(#linearGradient-17)" fill-rule="nonzero"></path>
                        <path d="M96.7420899,63.0165323 C97.7144431,63.7490971 97.9630312,64.1736767 97.6374468,64.853444 C97.3118625,65.5332113 97.6814447,65.8433964 97.1644696,66.5649617 C96.5834715,67.3555686 95.5610202,67.684562 94.6279915,67.3811225 C93.5500433,67.0775371 93.5126451,69.1080394 91.7945277,69.2378332 C90.0764103,69.367627 89.563835,69.158637 88.5210851,69.4864212 C87.4783352,69.8142055 87.3903395,70.8305566 86.235395,70.5863684 C85.0804505,70.3421801 85.049652,69.6052155 83.9343056,69.3918258 C82.8189593,69.1784361 82.4097789,67.4405196 83.0411486,66.6309585 C83.6725182,65.8213975 84.4710798,66.1909797 85.3994352,65.2252261 C86.3277906,64.2594725 87.2913442,65.4628147 88.6530788,64.292471 C90.0148133,63.1221272 91.1565584,62.5193562 92.6766853,63.0517306 C94.1968122,63.584105 95.1933643,61.8549881 96.7420899,63.0165323 Z" id="Path" fill="#FFE2CE" fill-rule="nonzero" transform="translate(90.258207, 66.615015) rotate(-6.000000) translate(-90.258207, -66.615015) "></path>
                        <path d="M36.1245902,38.1492769 C36.1245902,38.1492769 26.7200423,38.7366487 22.6040402,28.1573573 L14.3764357,36.3893615 C14.3764357,36.3893615 23.9723744,48.1653954 34.9476467,48.7329681 L36.1245902,38.1492769 Z" id="Path" fill="url(#linearGradient-18)" fill-rule="nonzero"></path>
                        <path d="M29.8724907,60.7047925 C29.8724907,60.7047925 49.3679535,52.2066011 55.9038392,37.7906941 L58.3413221,38.417664 C58.3413221,38.417664 57.3777684,44.7973573 47.2714543,53.7091288 C38.375082,61.5561516 27.7847911,65.7535498 27.7847911,65.7535498 L29.8724907,60.7047925 Z" id="Path" fill="url(#linearGradient-19)" fill-rule="nonzero"></path>
                        <circle id="Oval" fill="#B93E2E" fill-rule="nonzero" cx="36.5249709" cy="55.6582351" r="2.05470122"></circle>
                        <circle id="Oval" fill="#B93E2E" fill-rule="nonzero" cx="41.1667478" cy="59.9150305" r="2.05470122"></circle>
                        <path d="M90.1341935,81.4871934 C87.0125436,83.3923018 89.0892438,82.6157391 84.3088736,83.0865165 C79.5285034,83.5572938 78.4131571,85.1324181 75.2893072,84.8178332 C72.1654574,84.5032484 71.2679006,84.5846444 69.2571973,84.8596312 C67.2464939,85.134618 67.6930724,85.2160141 64.7892121,84.8596312 C61.8853517,84.5032484 60.7722052,84.989425 59.9868429,85.4558026 C59.2014807,85.9221801 56.117229,85.0994197 53.4157589,84.0918681 C50.7142887,83.0843166 49.8013326,85.154417 47.1592597,84.2084625 C44.5171867,83.262508 40.2735907,81.9777698 37.3697303,81.9777698 C34.4658699,81.9777698 33.2933263,81.2430051 30.6116552,80.0110643 C27.9299841,78.7791236 24.8523321,78.603132 23.4729984,77.4349882 C22.0936647,76.2668443 19.7331782,74.2055434 24.6807403,73.5829734 C29.6283025,72.9604033 35.2996298,75.8312653 37.0859439,76.4626349 C38.8722581,77.0940046 43.9782126,77.6967756 47.2340561,77.6307788 C50.4898995,77.5647819 52.0584241,80.2112547 54.9600846,80.30805 C57.8617451,80.4048454 63.2734849,79.3510961 64.1754416,79.4060934 C67.1628979,79.5842848 70.0007615,82.1031637 72.7550291,80.30805 C75.5092967,78.5129363 76.0548704,77.0654059 80.5888525,77.6307788 C85.1228345,78.1961516 89.4456267,75.8136661 91.7775145,78.3171458 C94.1094024,80.8206254 90.1341935,81.4871934 90.1341935,81.4871934 Z" id="Path" fill="#FFE2CE" fill-rule="nonzero"></path>
                        <path d="M23.7369857,27.5149882 C24.9975251,27.7459771 25.4309043,28.0275635 25.4419038,28.8129258 C25.4529032,29.598288 25.9478794,29.7192822 25.7982866,30.6300384 C25.6192917,31.6425193 24.8098827,32.425303 23.7919831,32.5703451 C22.6326388,32.7903346 23.5499947,34.6998427 21.9924696,35.6215984 C20.4349445,36.5433541 19.8519725,36.5807523 19.0226124,37.3815138 C18.1932522,38.1822753 18.5826335,39.1612283 17.3858911,39.4802129 C16.1891486,39.7991976 15.8085669,39.1128306 14.6558223,39.4318152 C13.5030777,39.7507999 12.3041354,38.3032695 12.519725,37.2693192 C12.7353146,36.2353689 13.6658699,36.1869713 14.0816499,34.8494356 C14.4974299,33.5118999 15.9779588,34.1894673 16.721523,32.4669501 C17.4650873,30.7444329 18.261449,29.6488856 19.9333686,29.4420955 C21.6052882,29.2353055 21.7328821,27.1498057 23.7369857,27.5149882 Z" id="Path" fill="#FFE2CE" fill-rule="nonzero"></path>
                        <ellipse id="Oval" fill="url(#linearGradient-20)" fill-rule="nonzero" transform="translate(38.791456, 57.731338) rotate(-47.490000) translate(-38.791456, -57.731338) " cx="38.7914561" cy="57.731338" rx="1.25173982" ry="2.05470122"></ellipse>
                        <circle id="Oval" fill="#B93E2E" fill-rule="nonzero" cx="42.7308726" cy="50.7282722" r="2.05470122"></circle>
                        <circle id="Oval" fill="#B93E2E" fill-rule="nonzero" cx="47.3726494" cy="54.9828676" r="2.05470122"></circle>
                        <ellipse id="Oval" fill="url(#linearGradient-20)" fill-rule="nonzero" transform="translate(44.996239, 52.798101) rotate(-47.490000) translate(-44.996239, -52.798101) " cx="44.9962392" cy="52.7981006" rx="1.25173982" ry="2.05470122"></ellipse>
                        <path d="M83.8974934,31.7145863 C83.8974934,31.7145863 58.5987097,43.1364371 35.6846113,32.4933488 C35.1453169,32.4747969 34.6389948,32.7524301 34.3646748,33.217114 C33.8081015,34.1168708 34.8046536,35.7689913 34.1292861,37.2605196 C33.5683131,38.5034599 32.1251824,39.7420003 31.8259968,41.1147343 C31.5268112,42.4874683 33.2427287,45.261535 35.2160338,46.2734863 C35.2160338,46.2734863 71.3492967,58.7204879 86.213982,44.2649829 C86.6671602,43.825004 88.1718879,42.3202764 88.9880487,40.4085683 C89.439039,39.445457 89.2942596,38.3086384 88.6162665,37.4893086 C87.7627076,36.5477539 86.7067583,36.4443589 86.359175,35.7491923 C86.0445902,35.1200225 85.8070016,34.0420744 85.5606134,33.3755064 C85.1866314,32.3789543 83.8974934,31.7145863 83.8974934,31.7145863 Z" id="Path" fill="url(#linearGradient-21)" fill-rule="nonzero"></path>
                        <path d="M86.359175,35.755792 C86.359175,35.755792 81.7261978,40.456966 76.3496563,42.7954535 C76.3496563,42.7954535 53.9987308,45.9303028 71.7056795,45.9303028 C80.4590587,45.9303028 88.6162665,37.4915085 88.6162665,37.4915085 L86.359175,35.755792 Z" id="Path" fill="#FFF2E9" fill-rule="nonzero" style="mix-blend-mode: multiply;"></path>
                        <path d="M34.3514754,35.4962045 C34.3514754,35.4962045 38.9712533,38.4418628 42.4228874,39.249224 C50.9672766,41.2445281 68.3310418,40.6307576 66.1091486,41.4865165 C58.4645161,44.429975 41.9213115,47.1094461 33.7267054,38.4418628 C33.7267054,38.4418628 34.505468,36.877738 34.3514754,35.4962045 Z" id="Path" fill="url(#linearGradient-22)" fill-rule="nonzero" style="mix-blend-mode: multiply;"></path>
                    </g>
                </g>
            </g>
        </g>
    </g>
</svg>