<?xml version="1.0" encoding="UTF-8"?>
<svg width="569px" height="160px" viewBox="0 0 569 160" version="1.1" xmlns="http://www.w3.org/2000/svg" xmlns:xlink="http://www.w3.org/1999/xlink">
    <!-- Generator: Sketch 60.1 (88133) - https://sketch.com -->
    <title>PC_discount_card_secondary_garnish_1</title>
    <desc>Created with Sketch.</desc>
    <defs>
        <rect id="path-1" x="0" y="0" width="587" height="160"></rect>
        <linearGradient x1="100%" y1="50%" x2="0%" y2="50%" id="linearGradient-3">
            <stop stop-color="#FFD947" offset="0%"></stop>
            <stop stop-color="#FFB91D" offset="100%"></stop>
        </linearGradient>
    </defs>
    <g id="精選類別-+-全站滿額" stroke="none" stroke-width="1" fill="none" fill-rule="evenodd">
        <g id="卡片那個背景" transform="translate(-1503.000000, -572.000000)">
            <g id="Group" transform="translate(120.000000, 120.000000)">
                <g id="PC_discount_card_secondary_garnish_1" transform="translate(1365.000000, 452.000000)">
                    <mask id="mask-2" fill="white">
                        <use xlink:href="#path-1"></use>
                    </mask>
                    <use id="PC_discount_card_primary_garnish_1" fill="#D8D8D8" opacity="0" xlink:href="#path-1"></use>
                    <path d="M0,196.933243 C20.3551382,139.021775 62.7091166,110.066041 127.061935,110.066041 C223.591163,110.066041 231.542697,150.524396 341.43917,142.524396 C451.335643,134.524396 432.624612,-7.42361006 601.824884,18.0570543 C696.768748,32.3550971 723.193775,62.2807782 678.084505,153.524396 C672.428634,164.964665 660.965325,191.100947 643.69458,231.933243 L0,212.933243 L0,196.933243 Z" id="Path-13" fill="url(#linearGradient-3)" mask="url(#mask-2)"></path>
                    <g id="img_star_0" opacity="0.5" mask="url(#mask-2)" fill="#FFFFFF">
                        <g transform="translate(506.000000, 0.000000)">
                            <path d="M52.8907925,77.0833722 C53.2681728,77.0883625 53.8661907,77.5734197 53.9740136,77.9566748 C54.3384152,79.273116 54.5700348,80.6294796 54.772702,81.9828491 C54.9144692,82.9220236 54.0239317,83.8701806 53.0135909,83.9869537 C52.1190599,84.0897538 51.6278665,83.5897258 51.5569829,82.3201934 C51.4900928,81.1574534 51.5420075,79.9887251 51.5420075,78.4028076 C51.5260338,78.4936311 51.474119,78.0704536 51.6608124,77.8718397 C51.9942648,77.5165303 52.4764729,77.0763858 52.8907925,77.0833722 Z M30.0452101,69.5478192 C30.2828199,69.7733807 30.3507084,70.1915679 30.4515428,70.5378947 C30.482492,70.6456852 30.4275821,70.825336 30.3467149,70.9121673 C29.4152446,71.9122234 28.5227104,72.9601865 27.4973942,73.8544483 C27.2188516,74.097975 26.4820616,73.9782078 26.0417846,73.8045453 C25.8161551,73.7147199 25.7792158,73.1418334 25.5875306,72.585914 C26.020819,71.9960605 26.3812272,71.2764592 26.9453008,70.7943962 C27.5842515,70.2474593 28.3889301,69.8791751 29.1566693,69.5078968 C29.4022659,69.3891276 29.8774855,69.3881296 30.0452101,69.5478192 Z M49.493871,66.500642 C50.5541299,67.7601938 51.0982363,69.2203557 50.6719364,70.9060791 C50.4572889,71.7574243 49.9381414,72.3362992 49.0575875,72.4301168 C48.7171466,72.466047 48.1630565,72.333305 48.0272795,72.0947686 C47.5530583,71.2643827 47.2196059,70.3551499 46.8332404,69.474861 C46.9111125,69.4399289 46.9889846,69.4049968 47.0668567,69.3690666 C47.1856616,68.5915778 47.2405715,67.797122 47.4362501,67.0405925 C47.7367566,65.8798486 48.7351171,65.5993938 49.493871,66.500642 Z M33.8288964,61.3543449 C33.9277341,62.2476087 32.9074097,63.2416765 31.7053837,63.2376962 C31.2411461,63.2366862 30.7789052,62.8214932 30.4574331,62.6637997 C30.4015249,61.5838987 31.6125362,60.1476903 32.315382,60.1167504 C33.0980966,60.0818183 33.7480292,60.6137843 33.8288964,61.3543449 Z M68.2085374,59.0726798 C69.0192061,59.0826604 70.0764698,60.0807205 70.057501,60.820283 C70.0385321,61.568828 69.0990749,62.3752605 68.2993882,62.3263556 C67.3409621,62.2694662 66.7409475,61.6147388 66.7828786,60.6725701 C66.8178212,59.8501686 67.5186703,59.0646953 68.2085374,59.0726798 Z M40.3469923,24.6540796 C40.7543233,25.2309583 40.9959266,25.9445713 41.2165642,26.6272443 C41.5979379,27.8119416 41.8535182,28.9896525 42.6831558,30.0436039 C43.2492261,30.7632052 43.3131212,31.8920112 43.5497326,32.8511469 C43.7394211,33.6216492 43.8702064,34.4081206 43.9890112,35.1925958 C44.1297801,36.1138052 44.7537554,36.5539497 45.550447,36.8044628 C46.4489714,37.0869138 46.863291,36.376295 47.3215385,35.8383406 C48.3897842,34.5847772 49.3881447,33.269334 50.4943281,32.0507027 C51.3868623,31.0666155 52.2424572,30.9298813 52.9073653,31.4858007 C53.7210291,32.1664777 53.8058897,33.3401963 53.0850735,34.3542253 C52.3991998,35.3193494 51.646436,36.2395608 51.0104804,37.2336286 C50.7948346,37.5699748 50.6570608,38.1937624 50.8297772,38.469227 C51.0004968,38.7436935 51.6274672,38.8944005 52.0198229,38.8405053 C53.7799324,38.5989748 55.5270632,38.2696149 57.2771891,37.9642086 C58.9364642,37.6737731 59.957787,38.3684229 60.1524672,40.0641269 C60.1904049,40.3884964 59.7900624,41.0033014 59.4835657,41.0851424 C58.1397725,41.4484362 56.9736875,42.0003634 55.8615139,42.8976194 C55.2285534,43.4086262 54.1103897,43.33976 53.2018817,43.4774923 C52.6158441,43.5663197 51.9888737,43.4665137 51.4277951,43.6232091 C51.0504148,43.7280054 50.530269,44.1072682 50.4923313,44.4156688 C50.4523969,44.7370441 50.8437542,45.2191071 51.1732132,45.4546493 C51.8660754,45.9526813 52.6807375,46.2780489 53.3716029,46.7760808 C54.8791272,47.858976 54.8611568,47.8859236 55.4272271,50.152518 C53.3126997,51.9150921 51.2920181,49.7063852 49.2923021,50.2153958 C48.9828103,51.4410136 48.430717,52.6835983 48.4147432,53.9321715 C48.3967727,55.287537 48.8759857,56.649889 49.1415496,58.0082487 C49.2304037,58.461368 49.3482102,58.910495 49.4101086,59.3676066 C49.5229233,60.2109673 49.167507,60.753912 48.3348744,61.0094153 C47.4333549,61.286876 46.7065484,61.0393572 46.3441436,60.2029828 C45.8229994,58.9963282 45.4585979,57.7218055 44.9763898,56.4961878 C44.4492554,55.1567912 43.9979965,53.7615032 43.2751835,52.5298971 C42.298787,50.8651329 40.5276955,50.8820999 39.4225105,52.445062 C39.0820695,52.9261269 38.8594352,53.4880347 38.5469483,53.9900589 C37.9040042,55.0230511 37.1692109,56.0360821 35.8304095,56.0570413 C35.2483653,56.0650258 34.5365343,55.7795806 34.1042442,55.386345 C33.5761116,54.9082742 33.6340165,54.1597292 34.1052426,53.5728698 C35.0407064,52.4051396 35.2593473,50.7533502 36.6440733,49.8730612 C36.8467405,49.7443115 36.8347601,49.2782174 36.9795224,48.7702048 C35.05069,48.2053028 33.2406624,47.9108751 31.3198169,48.4548179 C30.5900154,48.6614163 29.7324237,48.8191098 29.029578,48.6344687 C27.5989274,48.2591981 27.2495013,47.0505473 28.3666666,46.1173612 C29.4438976,45.216113 30.7797039,44.5923254 32.0665905,43.9825107 C32.9341658,43.5703119 33.912559,43.3936553 35.0916227,43.0363498 C34.6453556,42.4784342 34.4237196,42.0981733 34.1082377,41.826701 C32.6586183,40.5731376 31.1840399,39.3475198 29.7154516,38.1159137 C28.7021157,37.2665646 28.5134256,36.5998605 29.0515419,35.7305501 C29.6505582,34.7624319 30.4682154,34.5558335 31.6113382,35.1896016 C32.5368183,35.7016064 33.4233624,36.2894638 34.3019196,36.8813134 C35.54388,37.7176877 36.9455781,37.9691989 38.559927,38.3075412 C38.559927,37.2595782 38.6387975,36.4122252 38.54595,35.5858314 C38.2514336,32.9569412 37.908996,30.3340394 37.5525813,27.7131337 C37.393842,26.5394151 37.5346108,25.4884578 38.3941992,24.5921999 C39.1150154,23.8406607 39.736994,23.7887615 40.3469923,24.6540796 Z M60.0082042,54.1511458 C61.1692974,54.5563582 61.8292137,55.4705812 62.1916185,56.563457 C62.5021086,57.5026315 61.7763005,58.1613512 60.5213614,58.2022716 C59.0767338,58.2491804 57.6500767,56.4945909 58.0564094,55.1691671 C58.3758848,54.1281905 58.9918732,53.7968345 60.0082042,54.1511458 Z M5.18453686,54.2382765 C4.22511245,54.6564636 3.22176018,55.1395247 2.18346529,55.5307643 C1.35782118,55.8431571 0.592078704,55.6674985 0.15879026,54.829128 C-0.2665113,54.0067266 0.229673854,53.4458168 0.854647507,53.0026781 C1.28294415,52.7002659 1.74917849,52.4447626 2.21840791,52.2092204 C4.39683045,51.1173427 5.17055982,51.6103843 5.18453686,54.2382765 Z M19.0758243,48.0125774 C19.7167717,48.603429 19.6508799,49.3489799 19.4332373,50.198329 C19.0338931,51.7553027 18.2541736,52.6395839 16.5549641,52.5537507 C16.0358166,52.5278012 15.5086823,52.6665315 15.4537725,52.6735179 C13.1755139,52.7773162 12.566514,52.5377818 12.3019485,51.6385296 C12.0353862,50.7382795 12.6204255,49.849008 14.0331055,49.0884862 C14.9046742,48.619398 15.8091888,48.2121895 16.6867477,47.7530818 C17.5523262,47.3009606 18.3869555,47.3778112 19.0758243,48.0125774 Z M68.5530716,35.2439959 C70.9451433,37.9038259 70.2862253,37.8120044 67.8921569,39.4278636 C67.1483784,39.9298879 66.1849605,40.1175231 65.3074017,40.4039664 C64.5905789,40.6375124 63.909697,40.4339082 63.6211709,39.750237 C63.3855578,39.1953156 63.3016955,38.5096484 63.3825627,37.9128085 C63.4364742,37.5135844 63.8557856,37.1263371 64.1852445,36.8109502 C64.8321821,36.1921529 67.4418964,35.2929008 68.5530716,35.2439959 Z M80.7659154,34.4069229 C81.2730825,35.6185678 80.9416268,36.7613466 79.9123172,37.0358131 C79.0956583,37.2533902 78.2320765,37.3032932 77.208757,37.4540003 C76.6257145,37.4480119 75.8749474,37.333235 75.7401688,36.4170159 C75.6153737,35.5676667 75.9238671,34.8720189 76.7894456,34.508725 C77.3834701,34.25921 77.9685093,33.9847435 78.5425666,33.69331 C79.6267861,33.1443769 80.3276351,33.360956 80.7659154,34.4069229 Z M22.5885556,30.6279681 C23.7656226,30.6519215 25.3310518,32.2078972 25.315078,33.3496779 C25.3060928,34.1211783 24.750006,34.4954508 24.1400077,34.3836681 C23.118685,34.1950347 22.0803901,33.8966148 21.1698853,33.4145518 C20.7974969,33.2179339 20.4730297,32.3476256 20.5958281,31.9184597 C20.8454182,31.0451572 21.5991804,30.5610981 22.5885556,30.6279681 Z M19.4277463,28.6878391 C17.8742974,29.5781087 16.8979009,29.499262 16.092224,28.4802426 C15.3284782,27.5111263 15.6439602,26.5679596 16.8389976,26.2535707 C18.2826269,25.8743078 19.0573546,26.5699557 19.4277463,28.6878391 Z M58.028056,23.8128148 C58.6340608,24.7559815 58.6719985,25.7240998 58.0080888,26.3458912 C56.9378464,27.3499396 55.7937253,28.2711491 54.1304567,27.8160337 C53.3127995,26.8459193 53.9008338,25.9616381 54.3381157,25.0893336 C54.7803894,24.2060504 55.2036942,23.2379322 56.2280121,22.9115665 C57.0217086,22.6590573 57.6067479,23.1570893 58.028056,23.8128148 Z M62.9789256,16.3487228 C63.8315254,16.668102 63.8195451,17.4635559 63.7836041,18.1641941 C63.7366812,19.0614501 63.0178616,19.6822434 62.0574389,19.6602861 C61.5103373,19.6463133 60.9682276,19.4347245 60.2484097,19.2720407 C60.4520752,18.411713 60.5059867,17.8817431 60.7036621,17.4126548 C61.083039,16.5153988 62.1363093,16.0333358 62.9789256,16.3487228 Z M37.2359014,13.8289206 C37.6512193,14.9966508 37.8518898,16.2402337 38.0445733,17.0356876 C38.032593,18.4938533 37.4265882,19.3611675 36.583972,19.5567873 C35.6734672,19.768376 34.8967428,19.3012839 34.4714412,18.2054139 C34.2338314,17.5936031 34.1319987,16.9288951 33.9033741,16.312094 C33.4002004,14.9567284 34.0012134,14.034521 35.0285264,13.2640186 C35.9639901,12.5623824 36.8435457,12.7260642 37.2359014,13.8289206 Z M33.1639884,4.26325641e-14 C34.5956373,0.602828276 35.3853404,1.32642182 35.4831797,2.7037447 C35.5440797,3.55109769 35.8675485,4.38248172 35.9084813,5.22883665 C35.9434239,5.96540498 35.7257813,6.73890153 34.8032962,6.86166291 C34.0245751,6.9644631 33.3726457,6.73989959 33.1000933,5.86759509 C32.672795,4.49526251 32.2085574,3.13490665 31.7453181,1.72364972 C32.3553164,0.982091099 32.769636,0.478070769 33.1639884,4.26325641e-14 Z"></path>
                        </g>
                    </g>
                </g>
            </g>
        </g>
    </g>
</svg>