<svg xmlns="http://www.w3.org/2000/svg" xmlns:xlink="http://www.w3.org/1999/xlink" width="569" height="160" viewBox="0 0 569 160">
    <defs>
        <path id="a" d="M0 0h587v160H0z"/>
        <linearGradient id="b" x1="74.844%" x2="0%" y1="50%" y2="50%">
            <stop offset="0%" stop-color="#F7E363"/>
            <stop offset="100%" stop-color="#38CBA5"/>
        </linearGradient>
    </defs>
    <g fill="none" fill-rule="evenodd" transform="translate(-18)">
        <mask id="c" fill="#fff">
            <use xlink:href="#a"/>
        </mask>
        <path fill="url(#b)" d="M0 196.933c20.355-57.911 62.71-86.867 127.062-86.867 96.53 0 104.48 40.458 214.377 32.458S432.625-7.424 601.825 18.057c94.944 14.298 121.369 44.224 76.26 135.467-5.656 11.44-17.12 37.577-34.39 78.41L0 212.933v-16z" mask="url(#c)"/>
        <g fill="#FFF" mask="url(#c)" opacity=".5">
            <path d="M558.89 77.083c.378.005.976.49 1.084.874.364 1.316.596 2.672.799 4.026.141.939-.75 1.887-1.76 2.004-.894.103-1.385-.397-1.456-1.667-.067-1.163-.015-2.331-.015-3.917-.016.09-.068-.333.119-.531.333-.355.815-.796 1.23-.789zm-22.845-7.535c.238.225.306.644.407.99.03.108-.024.287-.105.374-.932 1-1.824 2.048-2.85 2.942-.278.244-1.015.124-1.455-.05-.226-.09-.263-.662-.454-1.218.433-.59.793-1.31 1.357-1.792.64-.547 1.444-.915 2.212-1.286.245-.119.72-.12.888.04zm19.449-3.047c1.06 1.26 1.604 2.72 1.178 4.405-.215.851-.734 1.43-1.614 1.524-.34.036-.895-.097-1.03-.335-.475-.83-.808-1.74-1.195-2.62l.234-.106c.119-.777.174-1.572.37-2.328.3-1.161 1.298-1.442 2.057-.54zm-15.665-5.147c.099.894-.922 1.888-2.124 1.884-.464-.001-.926-.417-1.248-.574-.055-1.08 1.156-2.516 1.858-2.547.783-.035 1.433.497 1.514 1.237zm34.38-2.281c.81.01 1.867 1.008 1.849 1.747-.02.749-.959 1.555-1.759 1.506-.958-.057-1.558-.711-1.516-1.653.035-.823.736-1.608 1.426-1.6zm-27.862-34.419c.407.577.649 1.29.87 1.973.38 1.185.637 2.363 1.466 3.417.566.72.63 1.848.867 2.807.19.77.32 1.557.439 2.342.14.92.765 1.36 1.561 1.611.899.283 1.313-.428 1.772-.966 1.068-1.253 2.066-2.569 3.172-3.787.893-.984 1.748-1.121 2.413-.565.814.68.899 1.854.178 2.868-.686.965-1.439 1.886-2.075 2.88-.215.336-.353.96-.18 1.235.17.275.797.425 1.19.372 1.76-.242 3.507-.571 5.257-.877 1.66-.29 2.68.404 2.875 2.1.038.324-.362.94-.668 1.021-1.344.363-2.51.915-3.622 1.813-.633.51-1.752.442-2.66.58-.586.088-1.213-.011-1.774.145-.378.105-.898.484-.936.793-.04.321.352.803.681 1.039.693.498 1.508.823 2.199 1.321 1.507 1.083 1.49 1.11 2.055 3.377-2.114 1.762-4.135-.447-6.135.062-.31 1.226-.861 2.469-.877 3.717-.018 1.356.461 2.718.727 4.076.088.453.206.902.268 1.36.113.843-.242 1.386-1.075 1.641-.902.278-1.628.03-1.99-.806-.522-1.207-.886-2.481-1.369-3.707-.527-1.34-.978-2.734-1.7-3.966-.977-1.665-2.748-1.648-3.853-.085-.34.481-.564 1.043-.876 1.545-.643 1.033-1.378 2.046-2.717 2.067-.582.008-1.293-.277-1.726-.67-.528-.479-.47-1.227.001-1.814.936-1.168 1.154-2.82 2.54-3.7.202-.129.19-.595.335-1.103-1.93-.565-3.74-.86-5.66-.315-.73.206-1.588.364-2.29.18-1.431-.376-1.78-1.584-.663-2.518 1.077-.9 2.413-1.525 3.7-2.134.867-.413 1.846-.59 3.025-.947-.447-.558-.668-.938-.984-1.21-1.45-1.253-2.924-2.478-4.393-3.71-1.013-.85-1.202-1.516-.663-2.385.599-.969 1.416-1.175 2.56-.541.925.512 1.811 1.1 2.69 1.691 1.242.837 2.644 1.088 4.258 1.427 0-1.048.079-1.896-.014-2.722a336.31 336.31 0 0 0-.993-7.873c-.16-1.174-.018-2.225.841-3.12.721-.752 1.343-.804 1.953.061zm19.661 29.497c1.161.405 1.821 1.32 2.184 2.412.31.94-.416 1.598-1.67 1.64-1.445.046-2.872-1.708-2.466-3.034.32-1.04.936-1.372 1.952-1.018zm-54.823.087c-.96.418-1.963.902-3.002 1.293-.825.312-1.59.136-2.024-.702-.426-.822.07-1.383.696-1.826.428-.303.894-.558 1.363-.794 2.179-1.092 2.953-.599 2.967 2.03zm13.89-6.225c.642.59.576 1.336.358 2.185-.4 1.557-1.179 2.442-2.878 2.356-.52-.026-1.046.113-1.101.12-2.278.103-2.887-.136-3.152-1.035-.267-.9.318-1.79 1.731-2.55.872-.47 1.776-.877 2.654-1.336.865-.452 1.7-.375 2.389.26zm49.478-12.769c2.392 2.66 1.733 2.568-.66 4.184-.745.502-1.708.69-2.586.976-.716.234-1.397.03-1.686-.654a3.644 3.644 0 0 1-.238-1.837c.053-.4.473-.787.802-1.102.647-.619 3.257-1.518 4.368-1.567zm12.213-.837c.507 1.212.176 2.354-.854 2.629-.816.217-1.68.267-2.703.418-.583-.006-1.334-.12-1.469-1.037-.125-.85.184-1.545 1.05-1.908.593-.25 1.179-.524 1.753-.816 1.084-.549 1.785-.332 2.223.714zm-58.177-3.779c1.177.024 2.742 1.58 2.726 2.722-.009.771-.565 1.145-1.175 1.034-1.021-.189-2.06-.487-2.97-.97-.373-.196-.697-1.066-.574-1.496.25-.873 1.003-1.357 1.993-1.29zm-3.161-1.94c-1.554.89-2.53.811-3.336-.208-.764-.969-.448-1.912.747-2.226 1.444-.38 2.218.316 2.589 2.434zm38.6-4.875c.606.943.644 1.911-.02 2.533-1.07 1.004-2.214 1.925-3.878 1.47-.817-.97-.23-1.854.208-2.727.442-.883.866-1.851 1.89-2.177.794-.253 1.379.245 1.8.9zm4.95-7.464c.854.32.842 1.115.806 1.815-.047.897-.766 1.518-1.727 1.496-.547-.014-1.089-.225-1.809-.388.204-.86.258-1.39.456-1.86.379-.897 1.432-1.379 2.275-1.063zm-25.742-2.52c.415 1.168.616 2.411.809 3.207-.012 1.458-.618 2.325-1.461 2.52-.91.212-1.687-.255-2.113-1.35-.237-.612-.339-1.277-.568-1.894-.503-1.355.098-2.277 1.126-3.048.935-.702 1.815-.538 2.207.565zM539.164 0c1.432.603 2.221 1.326 2.32 2.704.06.847.384 1.678.424 2.525.035.736-.182 1.51-1.105 1.633-.778.102-1.43-.122-1.703-.994-.427-1.373-.891-2.733-1.355-4.144L539.164 0z"/>
        </g>
    </g>
</svg>
